<svg xmlns="http://www.w3.org/2000/svg" width="800" height="600" viewBox="0 0 800 600">
  <defs>
    <linearGradient id="bgGrad2" x1="0%" y1="0%" x2="100%" y2="100%">
      <stop offset="0%" style="stop-color:#FEF9E7"/>
      <stop offset="100%" style="stop-color:#F5EFE5"/>
    </linearGradient>
    <linearGradient id="cookieGrad" x1="0%" y1="0%" x2="0%" y2="100%">
      <stop offset="0%" style="stop-color:#D4A574"/>
      <stop offset="100%" style="stop-color:#8B6914"/>
    </linearGradient>
  </defs>
  <rect fill="url(#bgGrad2)" width="800" height="600"/>
  <ellipse cx="400" cy="300" rx="140" ry="130" fill="url(#cookieGrad)"/>
  <ellipse cx="350" cy="260" rx="25" ry="20" fill="#C49A6C"/>
  <ellipse cx="420" cy="280" rx="20" ry="18" fill="#C49A6C"/>
  <ellipse cx="380" cy="340" rx="22" ry="19" fill="#C49A6C"/>
  <ellipse cx="450" cy="320" rx="18" ry="16" fill="#C49A6C"/>
  <ellipse cx="340" cy="290" rx="15" ry="12" fill="#3D2314"/>
  <ellipse cx="400" cy="250" rx="14" ry="11" fill="#3D2314"/>
  <ellipse cx="460" cy="280" rx="13" ry="10" fill="#3D2314"/>
  <ellipse cx="380" cy="320" rx="12" ry="10" fill="#3D2314"/>
  <ellipse cx="440" cy="350" rx="14" ry="11" fill="#3D2314"/>
  <ellipse cx="350" cy="350" rx="11" ry="9" fill="#3D2314"/>
  <ellipse cx="420" cy="380" rx="10" ry="8" fill="#3D2314"/>
  <ellipse cx="338" cy="288" rx="4" ry="3" fill="#5D3D2E" opacity="0.5"/>
  <ellipse cx="398" cy="248" rx="4" ry="3" fill="#5D3D2E" opacity="0.5"/>
  <ellipse cx="458" cy="278" rx="3" ry="2" fill="#5D3D2E" opacity="0.5"/>
  <circle cx="280" cy="420" r="8" fill="#D4A574"/>
  <circle cx="520" cy="400" r="6" fill="#D4A574"/>
  <circle cx="300" cy="440" r="5" fill="#C49A6C"/>
  <circle cx="500" cy="430" r="4" fill="#C49A6C"/>
  <text x="400" y="550" font-family="Georgia, serif" font-size="28" fill="#8B5A2B" text-anchor="middle">Gourmet Cookies</text>
</svg>
