<svg xmlns="http://www.w3.org/2000/svg" width="800" height="600" viewBox="0 0 800 600">
  <defs>
    <linearGradient id="bgGrad3" x1="0%" y1="0%" x2="100%" y2="100%">
      <stop offset="0%" style="stop-color:#FEF9E7"/>
      <stop offset="100%" style="stop-color:#F5EFE5"/>
    </linearGradient>
    <linearGradient id="chocoGrad" x1="0%" y1="0%" x2="0%" y2="100%">
      <stop offset="0%" style="stop-color:#5D3D2E"/>
      <stop offset="100%" style="stop-color:#3D2314"/>
    </linearGradient>
    <linearGradient id="kunafaGrad" x1="0%" y1="0%" x2="0%" y2="100%">
      <stop offset="0%" style="stop-color:#D4AF37"/>
      <stop offset="100%" style="stop-color:#B8860B"/>
    </linearGradient>
  </defs>
  <rect fill="url(#bgGrad3)" width="800" height="600"/>
  <rect x="250" y="220" width="300" height="160" rx="10" fill="url(#chocoGrad)"/>
  <rect x="260" y="230" width="65" height="65" rx="5" fill="#4A2C20"/>
  <rect x="335" y="230" width="65" height="65" rx="5" fill="#4A2C20"/>
  <rect x="410" y="230" width="65" height="65" rx="5" fill="#4A2C20"/>
  <rect x="485" y="230" width="55" height="65" rx="5" fill="#4A2C20"/>
  <rect x="260" y="305" width="65" height="65" rx="5" fill="#4A2C20"/>
  <rect x="335" y="305" width="65" height="65" rx="5" fill="#4A2C20"/>
  <rect x="410" y="305" width="65" height="65" rx="5" fill="#4A2C20"/>
  <rect x="485" y="305" width="55" height="65" rx="5" fill="#4A2C20"/>
  <g fill="url(#kunafaGrad)" opacity="0.9">
    <path d="M270 250 Q280 240 290 250 Q300 260 310 250" stroke="#D4AF37" stroke-width="2" fill="none"/>
    <path d="M280 260 Q290 250 300 260 Q310 270 320 260" stroke="#D4AF37" stroke-width="2" fill="none"/>
    <path d="M340 250 Q350 240 360 250 Q370 260 380 250" stroke="#D4AF37" stroke-width="2" fill="none"/>
    <path d="M350 260 Q360 250 370 260 Q380 270 390 260" stroke="#D4AF37" stroke-width="2" fill="none"/>
    <path d="M420 250 Q430 240 440 250 Q450 260 460 250" stroke="#D4AF37" stroke-width="2" fill="none"/>
    <path d="M430 260 Q440 250 450 260 Q460 270 470 260" stroke="#D4AF37" stroke-width="2" fill="none"/>
  </g>
  <path d="M200 350 Q220 340 240 355" stroke="#D4AF37" stroke-width="2" fill="none"/>
  <path d="M560 340 Q580 330 600 345" stroke="#D4AF37" stroke-width="2" fill="none"/>
  <path d="M220 380 Q240 370 260 385" stroke="#B8860B" stroke-width="2" fill="none"/>
  <path d="M540 370 Q560 360 580 375" stroke="#B8860B" stroke-width="2" fill="none"/>
  <path d="M300 400 Q350 420 400 400 Q450 380 500 400" stroke="#D4AF37" stroke-width="3" fill="none" opacity="0.7"/>
  <circle cx="280" cy="280" r="3" fill="#D4AF37"/>
  <circle cx="360" cy="320" r="2" fill="#D4AF37"/>
  <circle cx="440" cy="290" r="3" fill="#D4AF37"/>
  <circle cx="520" cy="340" r="2" fill="#D4AF37"/>
  <text x="400" y="500" font-family="Georgia, serif" font-size="28" fill="#8B5A2B" text-anchor="middle">Kunafa Chocolate Bars</text>
</svg>
