<?xml version="1.0" standalone="no"?>
<!DOCTYPE svg PUBLIC "-//W3C//DTD SVG 20010904//EN"
 "http://www.w3.org/TR/2001/REC-SVG-20010904/DTD/svg10.dtd">
<svg version="1.0" xmlns="http://www.w3.org/2000/svg"
 width="500.000000pt" height="499.000000pt" viewBox="0 0 500.000000 499.000000"
 preserveAspectRatio="xMidYMid meet">
<g transform="translate(0.000000,499.000000) scale(0.100000,-0.100000)"
fill="#000000" stroke="none">
<path d="M2239 4805 c-564 -56 -1082 -297 -1493 -695 -398 -385 -640 -864
-711 -1408 -18 -132 -20 -458 -5 -582 31 -249 107 -507 219 -742 146 -306 391
-612 663 -829 114 -91 185 -138 353 -236 11 -6 61 -32 112 -57 383 -189 789
-262 1313 -236 208 11 307 26 495 75 120 31 165 46 315 104 79 30 285 136 354
182 32 21 60 39 63 39 2 0 30 19 61 42 284 208 502 439 663 703 172 281 293
611 330 905 16 121 16 525 1 653 -20 167 -84 406 -149 562 -27 66 -126 268
-146 300 -143 232 -238 354 -383 497 -303 298 -684 524 -1074 636 -305 89
-654 119 -981 87z m187 -33 c-10 -2 -22 0 -28 6 -6 6 0 7 19 4 21 -5 23 -7 9
-10z m219 8 c8 -13 -15 -13 -35 0 -12 8 -11 10 7 10 12 0 25 -4 28 -10z m-292
-7 c-7 -2 -19 -2 -25 0 -7 3 -2 5 12 5 14 0 19 -2 13 -5z m-202 -18 c-29 -9
-50 -11 -65 -4 -20 9 -19 9 4 5 14 -2 34 0 45 4 11 5 29 9 40 9 11 0 0 -6 -24
-14z m706 9 c-3 -3 -12 -4 -19 -1 -8 3 -5 6 6 6 11 1 17 -2 13 -5z m68 -14
c25 -11 -1 -11 -35 0 -20 6 -21 8 -5 8 11 0 29 -3 40 -8z m-900 -10 c-3 -5
-11 -10 -16 -10 -6 0 -7 5 -4 10 3 6 11 10 16 10 6 0 7 -4 4 -10z m810 -10
c28 -6 84 -15 125 -21 87 -11 133 -24 325 -86 200 -64 408 -164 563 -270 35
-24 67 -43 73 -43 5 0 9 -5 9 -10 0 -6 8 -13 18 -17 34 -12 260 -206 306 -262
11 -14 34 -39 51 -56 75 -78 214 -261 239 -315 3 -8 19 -35 36 -60 35 -55 140
-267 140 -284 0 -7 4 -16 9 -21 25 -28 99 -277 137 -460 26 -122 27 -146 28
-405 0 -261 -1 -281 -27 -400 -48 -226 -89 -343 -207 -595 -40 -86 -35 -80
-58 -63 -19 13 -18 15 17 78 186 334 269 758 231 1185 -17 197 -89 493 -154
639 -8 17 -27 60 -42 96 -15 36 -36 77 -46 92 -10 14 -18 30 -18 35 0 12 -80
145 -135 223 -16 24 -35 50 -40 60 -6 9 -17 24 -25 33 -8 9 -28 33 -45 53 -79
100 -266 280 -370 356 -5 4 -23 18 -40 31 -16 13 -64 45 -105 72 -41 26 -86
55 -100 65 -14 9 -56 32 -95 51 -38 20 -79 40 -90 46 -18 9 -68 31 -175 76
-96 40 -312 99 -460 126 -392 70 -946 15 -1275 -128 -11 -5 -49 -21 -85 -36
-76 -32 -234 -111 -270 -135 -92 -62 -151 -100 -156 -100 -4 0 -21 -12 -40
-27 -18 -16 -45 -37 -59 -48 -14 -11 -37 -29 -50 -40 -13 -11 -45 -38 -71 -60
-58 -49 -172 -166 -214 -220 -18 -22 -38 -44 -46 -48 -8 -4 -14 -15 -14 -22 0
-8 -4 -15 -8 -15 -5 0 -20 -17 -33 -37 -144 -216 -138 -206 -205 -343 -31 -63
-62 -126 -69 -140 -37 -72 -97 -283 -131 -460 -21 -108 -27 -176 -31 -338 -9
-336 37 -592 154 -872 29 -67 87 -185 105 -211 15 -23 16 -28 3 -39 -8 -6 -18
-9 -23 -6 -9 5 -81 149 -125 246 -40 89 -97 278 -117 385 -5 28 -16 88 -25
135 -25 135 -22 505 5 646 39 207 115 481 141 509 5 5 9 15 9 22 0 14 89 198
129 267 23 41 109 173 123 191 4 6 38 48 74 95 37 47 78 96 93 110 14 15 40
42 57 60 52 59 192 180 309 268 133 99 438 268 521 288 16 4 34 10 39 14 34
26 302 101 430 120 127 19 199 29 245 34 79 7 483 -3 535 -14z m-852 -7 c-7
-2 -19 -2 -25 0 -7 3 -2 5 12 5 14 0 19 -2 13 -5z m1112 -3 c8 -13 -5 -13 -25
0 -13 8 -13 10 2 10 9 0 20 -4 23 -10z m-1175 -10 c-18 -12 -50 -13 -50 -2 0
4 15 8 33 9 23 2 28 0 17 -7z m1224 4 c18 -7 22 -24 5 -24 -6 0 -17 7 -25 15
-16 16 -7 19 20 9z m-1303 -20 c-18 -13 -25 -14 -34 -4 -7 7 -7 10 -2 7 6 -3
17 -2 25 4 26 16 35 10 11 -7z m1359 0 c0 -2 -7 -4 -15 -4 -8 0 -15 4 -15 10
0 5 7 7 15 4 8 -4 15 -8 15 -10z m-1404 -16 c4 -7 3 -8 -4 -4 -6 4 -20 2 -31
-4 -12 -6 -22 -6 -26 -1 -3 5 5 12 17 14 13 2 26 5 30 6 4 0 10 -4 14 -11z
m1073 -21 c47 -9 89 -13 94 -10 6 4 7 1 2 -7 -6 -10 -3 -12 13 -8 12 4 20 2
17 -3 -3 -4 7 -8 22 -7 46 1 107 -14 116 -29 4 -7 17 -13 28 -13 11 0 17 4 14
10 -3 6 1 7 9 4 9 -3 14 -9 11 -13 -2 -4 6 -7 18 -6 27 2 68 -15 62 -26 -3 -4
4 -5 14 -2 11 3 33 -4 50 -16 16 -12 36 -18 45 -15 9 3 16 1 16 -5 0 -7 6 -11
13 -10 25 3 38 -1 32 -11 -3 -6 1 -7 9 -4 9 3 16 1 16 -5 0 -6 9 -11 20 -11
11 0 20 -5 20 -12 0 -6 3 -9 6 -5 4 3 19 0 35 -9 30 -15 40 -31 15 -21 -10 4
-13 1 -10 -8 3 -8 13 -11 21 -8 11 4 14 2 9 -6 -4 -6 -2 -18 4 -26 8 -10 9
-15 2 -15 -6 0 -14 5 -17 10 -3 6 -13 10 -22 10 -9 0 -22 8 -30 18 -8 9 -12
11 -8 5 4 -8 -6 -6 -24 4 -16 10 -27 21 -25 25 3 4 -3 5 -12 1 -10 -3 -15 -2
-12 3 4 5 -8 10 -25 11 -18 2 -37 9 -43 18 -12 16 -29 21 -20 6 4 -5 -3 -7
-14 -4 -11 3 -17 9 -14 14 3 5 -3 9 -13 9 -11 0 -24 5 -31 12 -7 7 -12 8 -12
4 0 -5 -7 -3 -15 4 -8 7 -32 14 -54 15 -21 2 -52 10 -69 19 -17 9 -42 16 -55
16 -12 0 -29 6 -36 13 -11 10 -12 9 -6 -3 7 -12 6 -13 -6 -3 -9 7 -33 15 -55
18 -21 4 -52 10 -69 15 -16 5 -39 9 -50 9 -11 -1 -93 5 -182 12 -143 11 -186
11 -365 -4 -191 -17 -275 -30 -307 -51 -10 -6 -12 -6 -7 2 4 7 2 12 -3 12 -6
0 -11 -4 -11 -8 0 -4 -9 -8 -20 -8 -11 0 -20 4 -20 8 0 4 -5 8 -11 8 -5 0 -8
-4 -5 -8 3 -5 -27 -19 -67 -31 -40 -13 -103 -34 -142 -48 -106 -37 -109 -38
-100 -23 5 9 4 11 -4 6 -6 -4 -9 -11 -6 -16 4 -7 -21 -23 -29 -17 -1 1 -10 -4
-19 -11 -9 -8 -22 -10 -28 -6 -7 4 -9 3 -5 -4 6 -10 -59 -39 -76 -34 -5 1 -7
-4 -5 -11 1 -7 -7 -11 -23 -9 -20 2 -22 1 -10 -7 12 -9 11 -11 -8 -11 -13 0
-21 -4 -17 -9 3 -6 -4 -8 -15 -6 -12 2 -18 0 -14 -6 3 -6 -3 -13 -15 -16 -12
-3 -21 -9 -21 -14 0 -5 -7 -5 -17 -2 -11 5 -14 3 -8 -6 5 -10 1 -12 -16 -7
-13 3 -18 3 -11 0 18 -8 4 -24 -15 -17 -11 4 -14 3 -9 -5 4 -7 1 -13 -8 -13
-30 -3 -34 -4 -43 -13 -5 -5 -2 -6 7 -2 8 4 2 -3 -15 -16 -16 -13 -34 -23 -40
-23 -5 -1 -9 -6 -8 -13 2 -6 -4 -9 -12 -6 -9 4 -15 0 -15 -7 0 -11 -3 -11 -11
1 -9 12 -10 11 -6 -8 3 -12 1 -20 -3 -17 -5 3 -32 -18 -61 -47 -29 -29 -49
-46 -43 -38 5 9 0 6 -11 -7 -12 -13 -25 -23 -30 -23 -6 0 -5 4 1 8 9 5 8 11
-2 20 -12 11 -14 10 -11 -5 1 -10 6 -23 10 -29 4 -7 0 -11 -10 -10 -10 0 -18
-5 -18 -13 0 -8 -6 -16 -14 -19 -8 -3 -11 0 -7 6 3 6 2 13 -3 17 -6 3 -8 -5
-5 -18 3 -18 -6 -32 -36 -57 -22 -18 -37 -38 -33 -43 3 -6 1 -7 -5 -3 -9 5 -9
13 -2 26 8 16 7 18 -4 14 -9 -4 -13 -15 -10 -31 3 -15 1 -22 -6 -18 -5 3 -10
0 -10 -7 -1 -18 -28 -53 -36 -45 -4 4 -1 13 5 21 8 10 9 16 1 21 -6 4 -9 3 -8
-2 1 -4 -4 -19 -11 -31 -7 -13 -10 -26 -7 -30 3 -3 6 1 6 8 0 7 3 10 7 7 3 -4
-2 -16 -12 -27 -19 -21 -41 -28 -29 -8 4 7 3 8 -4 4 -9 -5 -9 -13 -1 -28 8
-15 8 -19 0 -14 -6 4 -11 0 -11 -9 0 -9 -5 -13 -10 -10 -6 4 -10 3 -8 -2 4
-16 -77 -133 -89 -128 -8 2 -16 -7 -19 -22 -4 -15 -13 -38 -20 -52 -8 -14 -14
-33 -14 -41 0 -13 -1 -13 -10 0 -8 13 -10 13 -10 -2 0 -9 -3 -18 -7 -21 -5 -2
-1 -2 7 0 10 2 9 -2 -4 -12 -11 -8 -20 -24 -21 -34 -1 -11 -14 -38 -29 -60
-16 -23 -25 -45 -20 -52 5 -8 3 -9 -6 -4 -10 6 -12 4 -7 -8 3 -10 3 -17 -1
-17 -8 0 -47 -120 -44 -134 2 -5 -4 -6 -12 -3 -12 5 -15 0 -12 -24 2 -21 0
-29 -9 -26 -6 3 -12 -1 -12 -9 0 -7 4 -11 9 -8 4 3 8 0 8 -5 0 -6 -4 -11 -10
-11 -5 0 -10 -10 -10 -22 1 -13 -9 -63 -20 -113 -12 -49 -22 -102 -22 -117 -1
-15 -5 -25 -10 -22 -4 3 -8 -1 -8 -8 0 -7 -3 -83 -6 -168 -11 -291 -7 -491 7
-453 8 18 14 -38 10 -84 -1 -13 2 -23 7 -23 5 0 9 -6 10 -12 1 -7 4 -26 6 -43
2 -16 10 -52 18 -80 8 -27 13 -56 10 -64 -3 -9 0 -11 8 -6 8 5 11 4 6 -3 -3
-6 2 -26 12 -44 9 -18 24 -51 31 -73 8 -22 18 -51 24 -65 6 -14 11 -31 13 -39
1 -8 8 -17 14 -21 9 -5 9 -9 1 -14 -6 -4 -11 -12 -11 -18 0 -6 6 -5 16 2 8 8
14 9 12 4 -1 -5 6 -29 16 -54 11 -25 20 -48 20 -52 1 -4 8 -13 16 -20 12 -11
12 -11 1 4 -8 10 -9 18 -3 18 14 0 23 -28 12 -35 -6 -4 -14 -4 -19 -1 -5 4 -8
-2 -7 -11 3 -22 41 -24 41 -3 0 8 5 15 10 16 6 0 19 4 30 8 11 5 25 10 32 11
16 5 11 29 -25 105 -16 36 -33 78 -36 93 -4 15 -11 25 -16 22 -6 -3 -10 0 -10
8 0 13 -19 60 -41 101 -8 14 -8 16 3 10 7 -4 5 2 -5 14 -11 11 -16 26 -12 31
3 6 1 11 -5 11 -7 0 -10 6 -7 14 3 7 0 19 -6 25 -6 6 -8 11 -4 11 4 0 0 16 -8
36 -8 20 -15 45 -15 56 0 10 -4 17 -8 14 -4 -3 -7 13 -6 35 1 21 -2 36 -7 33
-5 -3 -6 2 -3 11 4 8 0 23 -7 32 -10 12 -10 15 -1 9 8 -5 12 0 12 13 0 12 -4
21 -10 21 -11 0 -11 -14 -13 245 -2 178 2 248 17 350 3 17 7 53 10 80 8 72 22
133 34 147 6 7 13 33 17 58 7 48 41 131 58 141 5 4 6 12 3 18 -4 6 2 27 14 46
12 19 18 40 14 46 -4 7 -3 9 3 6 10 -6 33 33 33 57 0 7 12 25 26 39 14 14 23
31 19 37 -3 5 -3 10 2 10 4 0 16 20 26 45 11 26 23 42 30 38 5 -3 7 -1 3 5 -3
6 5 23 19 38 14 15 25 33 25 40 0 7 17 30 37 51 21 20 32 33 24 29 -10 -7 -11
-4 -2 13 7 11 19 21 27 21 8 0 13 4 10 9 -3 5 1 12 10 15 10 4 13 2 8 -6 -5
-7 -3 -8 5 -4 7 5 10 14 7 21 -2 7 2 16 10 19 8 3 14 12 14 20 0 7 9 16 20 19
11 3 23 13 27 24 8 20 43 61 43 50 0 -4 9 -3 20 3 15 8 20 8 20 -2 0 -10 3 -9
9 1 5 8 7 24 5 36 -4 24 26 46 68 48 14 1 25 7 25 14 0 8 -6 9 -18 2 -10 -5
-24 -9 -31 -9 -7 0 -4 5 7 11 11 6 31 23 44 38 13 14 20 19 15 11 -7 -13 -5
-13 9 -2 9 8 22 10 29 6 11 -6 11 -5 0 8 -10 13 -9 18 5 29 16 13 17 12 4 -3
-8 -11 -9 -18 -3 -18 6 0 14 9 17 21 4 11 9 18 12 16 2 -3 16 6 30 19 16 14
33 22 42 19 8 -3 13 -3 9 0 -9 9 23 45 39 45 7 0 13 4 13 10 0 5 6 7 14 4 8
-3 21 5 30 18 9 12 16 18 16 13 0 -6 5 -3 10 5 8 12 10 10 10 -8 0 -15 -4 -21
-12 -16 -7 4 -8 3 -4 -5 11 -17 26 -3 26 23 0 16 11 27 43 41 23 11 45 18 50
17 4 -1 7 3 7 10 0 6 3 9 6 5 3 -3 15 3 27 13 11 11 24 17 29 14 4 -3 8 -1 8
5 0 5 18 12 40 16 22 4 47 14 56 22 9 9 28 16 44 17 15 1 26 4 24 8 -6 10 34
20 47 12 8 -4 9 -3 5 4 -5 8 4 12 26 12 19 0 44 8 57 17 14 9 21 11 16 4 -6
-10 -3 -11 14 -2 12 7 27 9 33 5 6 -4 8 -3 4 4 -8 13 17 21 71 24 23 1 40 4
38 8 -2 3 8 6 23 7 62 2 73 3 69 11 -3 4 18 7 46 8 29 0 129 3 222 6 219 7
471 -8 516 -32 9 -6 25 -7 35 -3 13 5 15 3 9 -8 -8 -12 -6 -12 8 0 11 8 17 9
17 3 0 -7 7 -9 17 -5 9 4 14 2 10 -3 -3 -5 3 -11 14 -12 10 -1 28 -3 39 -4 11
-1 20 -7 20 -12 0 -5 3 -7 6 -4 3 4 21 0 40 -8 19 -8 38 -13 42 -10 5 3 14 0
22 -6 12 -8 12 -9 -3 -4 -11 4 -16 2 -11 -5 3 -6 15 -9 25 -6 10 3 22 1 25 -5
3 -5 15 -8 25 -5 12 3 17 1 13 -5 -4 -6 -1 -9 7 -6 8 3 19 -1 24 -9 6 -8 20
-15 33 -16 12 0 22 -5 22 -10 0 -4 6 -7 13 -6 6 1 19 1 27 0 13 -1 13 -2 0
-12 -12 -8 -9 -10 12 -6 15 2 25 1 23 -3 -6 -10 21 -22 55 -26 14 -2 26 -8 28
-14 2 -5 10 -10 18 -10 9 0 12 -5 8 -12 -5 -8 -2 -9 9 -5 10 3 17 2 17 -3 0
-6 6 -10 14 -10 8 0 16 -7 20 -15 3 -8 12 -12 21 -9 8 3 15 1 15 -5 0 -6 7
-11 16 -11 8 0 13 -4 10 -9 -4 -5 7 -12 23 -16 21 -4 28 -11 24 -21 -4 -10 -1
-14 8 -12 8 2 21 -3 29 -10 49 -41 63 -51 71 -46 5 3 9 -3 9 -12 0 -10 3 -14
6 -11 4 4 27 -13 52 -38 24 -25 48 -42 53 -39 5 3 9 2 9 -3 0 -4 19 -28 41
-53 23 -25 38 -38 34 -30 -4 8 3 4 14 -10 11 -14 21 -28 21 -31 0 -3 11 -12
25 -19 14 -7 23 -15 20 -18 -2 -3 -11 0 -18 6 -10 9 -14 8 -14 -3 0 -8 2 -13
5 -10 7 7 62 -24 62 -36 0 -6 18 -28 40 -50 22 -22 40 -44 40 -49 0 -6 5 -10
10 -10 6 0 10 -5 10 -11 0 -5 -4 -7 -10 -4 -6 3 -7 -1 -4 -10 5 -13 9 -13 22
-3 13 11 14 10 10 -2 -6 -18 22 -51 36 -43 6 3 8 3 4 -2 -7 -7 26 -75 63 -126
29 -41 117 -218 111 -224 -10 -10 -11 -35 -2 -40 5 -3 7 4 5 15 -2 12 0 18 6
14 6 -3 9 -17 6 -30 -2 -14 0 -27 6 -31 6 -4 7 -1 2 8 -6 10 -5 11 4 3 7 -6
13 -21 14 -33 1 -11 4 -21 8 -21 5 0 18 -51 24 -95 3 -27 17 -55 25 -50 4 3 6
-4 3 -15 -3 -11 0 -26 6 -33 6 -8 8 -16 6 -19 -3 -3 -1 -17 4 -31 6 -15 15
-64 21 -109 5 -46 12 -99 15 -118 8 -56 8 -298 -1 -311 -5 -8 -3 -9 6 -4 9 6
11 4 5 -5 -4 -7 -8 -33 -7 -59 0 -25 -4 -64 -8 -86 -5 -22 -16 -83 -26 -135
-9 -52 -24 -103 -32 -112 -10 -12 -11 -18 -3 -18 9 0 9 -5 -1 -22 -7 -13 -11
-27 -10 -31 1 -5 -9 -31 -23 -58 -14 -28 -25 -57 -25 -65 0 -7 -9 -30 -20 -49
-11 -20 -16 -34 -11 -31 14 9 -17 -53 -47 -93 -14 -19 -19 -31 -11 -27 8 4 3
-2 -11 -14 -14 -12 -19 -19 -12 -15 7 4 12 -1 12 -12 0 -11 -6 -25 -12 -32 -9
-10 -9 -12 -1 -7 6 3 14 2 18 -4 4 -6 11 -8 16 -4 5 3 8 0 7 -8 -2 -7 5 -12
14 -12 10 1 15 -3 12 -10 -3 -6 8 4 25 22 18 18 29 38 25 43 -4 8 -1 8 13 1
16 -9 19 -7 20 11 2 17 0 19 -7 7 -8 -13 -10 -13 -10 2 0 9 7 23 15 31 8 8 11
17 8 21 -4 3 -1 6 6 6 7 0 9 5 6 11 -4 5 0 18 9 28 20 22 108 250 101 261 -3
5 -1 11 4 15 6 3 7 13 4 22 -5 12 -3 14 7 8 10 -6 12 -4 7 7 -3 9 2 43 12 76
10 33 21 84 25 113 4 30 10 79 13 109 20 166 3 509 -33 653 -8 32 -12 68 -9
80 5 18 4 19 -5 7 -10 -12 -11 -11 -7 8 3 12 1 22 -4 22 -4 0 -6 7 -3 15 4 8
2 21 -4 28 -8 11 -56 142 -57 159 0 3 -3 10 -7 14 -5 4 -8 20 -8 36 0 15 -4
28 -8 28 -10 0 -45 74 -45 95 0 8 -3 12 -7 10 -3 -2 -14 18 -24 46 -10 27 -21
49 -25 49 -10 0 -35 50 -36 70 -1 8 -7 14 -15 12 -10 -2 -11 0 -1 11 8 10 9
22 1 41 -5 14 -12 26 -15 26 -2 0 0 -12 6 -26 5 -15 8 -29 6 -31 -6 -5 -40 49
-40 64 0 7 -2 11 -5 8 -3 -2 -12 10 -21 28 -9 17 -20 31 -25 29 -5 -2 -15 10
-24 27 -8 17 -18 28 -23 25 -5 -3 -10 0 -10 5 -1 6 -2 15 -3 20 0 6 -8 16 -16
23 -12 11 -13 11 -5 -2 6 -9 0 -4 -12 10 -13 14 -23 29 -23 33 0 4 -17 24 -37
42 -21 19 -33 35 -28 36 6 0 -1 5 -14 10 -15 6 -21 14 -17 25 3 8 2 13 -3 10
-5 -3 -16 5 -25 19 -9 14 -21 25 -27 25 -16 0 -39 27 -31 35 4 5 1 5 -5 1 -8
-4 -24 4 -39 21 -15 15 -31 27 -36 25 -5 -1 -7 2 -3 7 3 6 -5 15 -17 22 -13 7
-36 26 -53 43 -16 16 -24 26 -16 21 9 -5 12 -4 8 3 -4 5 -15 9 -24 8 -9 -2
-31 12 -49 31 -18 18 -38 33 -44 33 -7 0 -25 9 -41 21 -16 11 -29 18 -29 15 0
-4 -18 6 -40 20 -22 15 -40 31 -40 35 0 5 -3 8 -7 8 -20 -3 -34 2 -28 10 3 5
1 12 -4 16 -15 9 -9 46 7 40 7 -3 18 -5 23 -5 6 0 7 -4 4 -10 -3 -5 3 -10 14
-10 12 0 30 -9 41 -20 12 -12 26 -18 32 -14 6 4 8 3 4 -4 -3 -6 3 -13 14 -17
11 -3 20 -12 20 -18 0 -7 4 -6 10 3 8 12 10 12 16 -3 3 -9 10 -17 16 -17 5 0
21 -11 35 -24 15 -14 30 -23 34 -20 5 3 14 -4 21 -16 7 -11 18 -20 25 -20 7 0
17 -8 22 -17 8 -13 10 -14 11 -4 0 8 3 11 8 7 4 -4 7 -11 7 -14 0 -4 12 -18
27 -30 16 -13 26 -28 23 -33 -4 -5 0 -6 8 -3 16 6 40 -13 163 -134 78 -77 100
-103 72 -86 -7 4 -8 3 -4 -4 13 -22 -6 -37 -21 -17 -14 21 -18 8 -4 -14 7 -12
13 -12 24 -3 7 7 17 9 21 5 4 -4 4 0 0 10 -3 10 -1 17 5 17 6 0 11 -6 11 -13
0 -7 15 -29 33 -50 58 -66 87 -105 87 -116 0 -6 5 -11 10 -11 6 0 10 -7 10
-15 0 -7 7 -18 15 -23 9 -4 17 -18 18 -29 0 -12 4 -20 8 -17 7 4 38 -38 40
-53 1 -5 11 -21 22 -38 12 -16 22 -36 23 -43 2 -8 10 -22 19 -32 10 -11 14
-24 9 -31 -5 -8 -3 -10 6 -4 8 5 11 3 8 -6 -3 -8 -12 -12 -19 -11 -8 2 -10 0
-6 -5 5 -4 16 -8 24 -8 9 0 20 -12 24 -27 4 -15 17 -44 29 -63 12 -20 19 -42
16 -51 -3 -8 -2 -12 4 -9 7 5 27 -48 34 -91 1 -7 8 -20 16 -30 11 -13 12 -16
1 -10 -8 6 -7 0 4 -18 10 -14 15 -26 12 -26 -3 0 3 -22 13 -50 10 -27 16 -59
13 -70 -3 -11 -1 -20 4 -20 5 0 15 -37 23 -82 7 -46 15 -87 18 -92 2 -4 6 -27
7 -50 18 -254 19 -289 11 -431 -10 -165 -32 -315 -46 -315 -4 0 -5 -12 -3 -27
5 -33 -30 -136 -42 -125 -4 4 -5 -1 -2 -11 4 -10 -2 -35 -13 -57 -11 -22 -20
-45 -20 -53 0 -7 -9 -32 -20 -55 -11 -22 -20 -46 -20 -52 0 -6 -5 -8 -12 -4
-7 5 -9 1 -6 -13 3 -11 -3 -30 -13 -44 -10 -13 -19 -31 -19 -40 0 -9 -9 -28
-21 -42 -24 -31 -32 -64 -18 -73 14 -8 -9 -34 -30 -34 -14 0 -14 2 -1 10 10 6
3 7 -24 3 -24 -4 -37 -2 -33 4 3 5 -3 17 -14 26 -11 10 -17 22 -13 28 4 8 0 8
-14 0 -11 -6 -27 -11 -34 -10 -10 0 -10 2 0 6 17 7 5 23 -19 23 -11 0 -17 5
-14 10 3 6 1 10 -4 10 -6 0 -11 -4 -11 -10 0 -5 -14 -22 -30 -37 -17 -14 -28
-29 -25 -31 3 -3 -2 -13 -10 -22 -9 -10 -15 -21 -13 -26 2 -5 0 -9 -3 -9 -4 0
-16 -8 -27 -19 -15 -13 -20 -29 -19 -56 1 -21 5 -36 11 -33 5 3 6 1 2 -5 -5
-9 -13 -9 -29 0 -12 6 -24 10 -27 9 -36 -20 -61 -46 -57 -60 3 -12 -4 -16 -26
-17 -17 -1 -36 -9 -42 -18 -7 -9 -18 -16 -24 -16 -7 0 -10 -4 -7 -8 3 -5 -3
-18 -13 -28 -10 -11 -17 -27 -15 -36 2 -13 -2 -15 -20 -8 -13 5 -28 4 -37 -4
-17 -12 -47 -62 -31 -53 5 4 14 -4 20 -17 9 -21 8 -23 -10 -18 -13 3 -16 7 -8
12 8 5 0 11 -21 15 -22 5 -34 4 -37 -4 -2 -6 -9 -8 -14 -5 -6 4 -8 2 -4 -4 3
-5 1 -12 -5 -14 -7 -2 -13 -18 -14 -36 -2 -27 -1 -30 9 -17 11 15 14 14 30 -4
19 -21 9 -30 -10 -11 -7 7 -11 7 -11 -3 0 -7 9 -14 20 -14 23 -2 67 -41 64
-57 -1 -6 3 -10 10 -9 6 1 17 -4 23 -12 18 -21 46 -18 70 7 18 19 19 24 6 33
-12 9 -12 13 0 30 8 10 14 13 14 7 0 -7 7 -12 16 -12 8 0 12 -5 8 -11 -3 -6 8
-3 25 5 17 9 31 21 31 27 0 6 6 7 13 3 10 -6 10 -4 0 7 -20 20 -16 25 22 24
19 -1 32 2 29 6 -2 4 4 13 15 19 23 12 56 74 47 89 -4 5 -1 13 5 17 7 4 9 3 6
-3 -4 -6 4 -10 19 -10 26 0 57 34 52 57 -2 7 5 14 15 15 10 2 30 16 44 31 20
22 27 25 35 13 8 -11 9 -10 4 3 -3 10 -1 20 5 23 5 4 6 11 3 17 -5 7 -2 8 6 3
10 -6 12 -4 6 11 -6 15 -4 16 5 7 9 -9 15 -9 26 2 7 8 13 17 13 20 0 3 13 18
30 33 24 23 28 30 18 41 -11 11 -10 12 0 6 10 -5 13 -1 11 16 -5 36 8 49 40
43 21 -5 34 0 50 17 11 12 21 29 21 36 0 7 4 13 9 13 5 0 12 15 15 33 3 19 15
43 26 55 11 12 21 33 22 48 2 14 8 29 15 31 7 3 11 9 8 13 -3 5 4 25 15 45 11
19 20 42 20 50 0 8 5 15 10 15 6 0 10 -5 10 -12 0 -6 3 -8 6 -5 4 4 2 12 -4
20 -6 7 -7 18 -2 26 4 8 6 21 2 29 -4 11 -1 13 8 7 10 -6 12 -3 8 13 -4 12 -1
25 5 30 7 4 13 18 15 32 4 40 7 55 16 68 4 7 4 22 1 33 -4 12 -3 19 1 16 5 -3
10 10 11 28 1 19 9 61 17 96 9 34 17 100 17 148 0 47 4 114 8 149 4 34 5 62 2
62 -3 0 -8 59 -9 132 -2 73 -6 141 -9 152 -5 26 -16 105 -17 128 0 9 -4 14 -8
12 -4 -3 -9 5 -9 18 -1 13 -2 35 -3 50 0 14 -4 30 -8 34 -5 4 -8 20 -8 35 0
15 -5 31 -11 34 -6 4 -8 13 -5 21 3 8 2 14 -3 14 -5 0 -11 19 -15 42 -4 22
-10 46 -14 52 -4 6 -7 13 -7 16 -5 27 -30 90 -36 90 -5 0 -8 10 -6 23 1 14 -3
21 -11 19 -8 -1 -11 2 -7 8 4 6 -5 33 -19 60 -14 27 -26 58 -26 69 0 10 -7 22
-16 25 -8 3 -12 10 -9 16 3 5 2 10 -4 10 -6 0 -13 16 -17 35 -3 19 -10 32 -15
29 -5 -3 -9 2 -9 11 0 10 -5 13 -12 9 -7 -4 -10 -4 -6 1 4 4 -8 31 -27 60 -18
29 -31 55 -28 58 3 3 -4 11 -15 18 -12 7 -18 19 -14 27 4 10 1 13 -7 8 -8 -6
-11 -2 -9 10 2 11 -3 19 -12 19 -9 0 -14 8 -12 18 2 9 -2 16 -8 15 -7 -2 -17
6 -23 17 -7 11 -16 23 -21 26 -5 4 -5 12 -1 19 5 8 4 11 -3 6 -6 -3 -13 -2
-17 4 -3 5 0 10 8 10 19 0 50 -47 41 -62 -5 -8 -2 -9 10 -5 13 5 19 1 23 -13
3 -11 9 -17 14 -14 5 3 9 -2 9 -10 0 -8 6 -21 14 -28 7 -8 17 -24 20 -36 4
-12 11 -20 16 -17 4 3 6 -5 4 -17 -2 -13 -1 -17 2 -10 5 10 9 9 19 -5 7 -10
13 -22 13 -27 0 -5 6 -13 14 -18 10 -7 8 -8 -5 -4 -11 3 -16 2 -12 -4 3 -6 13
-10 21 -10 8 0 15 -4 15 -10 1 -5 2 -16 3 -22 1 -7 7 -12 14 -11 7 2 9 -4 5
-14 -5 -12 -3 -14 7 -8 8 5 11 4 7 -2 -8 -13 17 -76 26 -66 4 3 7 -6 7 -20 0
-17 5 -27 15 -27 13 0 21 -25 16 -52 0 -5 3 -8 7 -8 9 0 37 -61 47 -102 4 -16
11 -25 16 -22 5 3 9 1 9 -5 0 -5 -5 -13 -12 -17 -8 -5 -6 -11 5 -19 9 -7 18
-21 20 -33 2 -11 8 -26 14 -34 6 -7 14 -34 18 -61 4 -26 12 -50 17 -53 5 -3 4
-12 -3 -20 -9 -11 -8 -15 5 -20 11 -4 14 -13 9 -32 -4 -19 -3 -23 7 -17 10 6
12 3 8 -13 -4 -13 -1 -22 5 -22 7 0 5 -5 -3 -10 -12 -7 -12 -10 -1 -10 7 0 11
-6 8 -14 -3 -8 -1 -16 4 -18 5 -2 12 -41 15 -88 2 -47 8 -105 11 -130 19 -138
16 -393 -7 -555 -5 -38 -12 -90 -14 -114 -3 -24 -10 -49 -15 -54 -5 -5 -7 -16
-4 -23 3 -8 0 -14 -7 -14 -6 0 -8 -4 -5 -10 3 -5 1 -19 -5 -30 -8 -15 -8 -20
2 -20 10 0 10 -2 0 -9 -8 -4 -14 -12 -14 -17 -1 -10 -1 -12 -22 -80 -9 -28
-18 -59 -20 -70 -2 -10 -12 -37 -22 -59 -48 -108 -58 -130 -63 -135 -3 -3 -6
-11 -7 -17 -2 -30 -5 -34 -15 -27 -7 4 -10 1 -7 -7 6 -14 -27 -78 -46 -91 -6
-4 -7 -8 -2 -8 5 0 1 -8 -8 -19 -9 -10 -18 -28 -19 -40 -1 -11 -4 -21 -8 -21
-4 0 -12 -13 -19 -30 -7 -16 -16 -27 -21 -24 -9 5 -13 -10 -10 -30 1 -5 -5 -3
-14 4 -13 11 -15 10 -10 -2 6 -16 -18 -71 -28 -62 -3 3 -8 -4 -12 -16 -4 -12
-22 -38 -41 -58 -18 -19 -31 -39 -28 -44 3 -5 0 -7 -8 -6 -7 2 -13 -6 -13 -17
0 -11 -9 -24 -21 -29 -11 -5 -25 -19 -30 -30 -5 -12 -15 -20 -21 -19 -7 2 -10
-6 -8 -17 2 -13 -1 -17 -11 -13 -8 3 -17 -3 -21 -13 -9 -23 -109 -124 -123
-124 -6 0 -8 -5 -4 -12 5 -8 2 -9 -10 -5 -11 4 -15 3 -11 -4 4 -6 -2 -13 -14
-16 -12 -3 -21 -12 -21 -19 0 -8 -5 -14 -11 -14 -6 0 -17 -7 -26 -16 -9 -8
-22 -13 -31 -9 -13 5 -13 3 -1 -12 8 -9 9 -14 3 -10 -6 3 -18 -3 -27 -14 -10
-11 -23 -17 -30 -13 -6 4 -9 4 -5 -1 8 -8 -33 -45 -51 -45 -6 0 -11 -5 -11
-12 0 -6 -3 -9 -6 -5 -3 3 -15 -4 -27 -14 -55 -50 -86 -71 -73 -50 4 6 -13 -2
-37 -19 -25 -16 -50 -30 -56 -30 -6 0 -11 -5 -11 -12 0 -6 -3 -8 -6 -5 -4 4
-15 -3 -25 -15 -11 -11 -19 -16 -19 -10 0 6 -7 9 -15 6 -8 -4 -12 -11 -8 -17
4 -6 0 -8 -9 -5 -8 4 -20 -2 -27 -13 -6 -11 -16 -17 -22 -14 -5 4 -30 -5 -54
-19 -25 -14 -43 -21 -40 -16 3 6 -1 7 -9 4 -9 -3 -13 -10 -10 -15 3 -5 -2 -6
-10 -3 -9 3 -16 1 -16 -5 0 -6 -8 -11 -18 -11 -10 0 -22 -4 -28 -9 -12 -11
-186 -66 -198 -63 -5 2 -21 -1 -35 -7 -14 -5 -35 -13 -46 -17 -11 -4 -26 -6
-32 -5 -7 1 -13 -2 -13 -6 0 -4 -23 -9 -52 -10 -28 -1 -54 -6 -57 -11 -3 -5
-13 -9 -21 -9 -8 -1 -37 -4 -65 -8 -27 -4 -181 -9 -342 -12 -251 -4 -396 2
-513 20 -87 14 -169 30 -185 37 -34 13 -99 30 -125 33 -14 1 -27 5 -30 9 -3 4
-15 9 -25 11 -11 1 -26 6 -32 10 -7 5 -18 5 -25 1 -7 -5 -8 -3 -4 5 5 8 3 11
-5 10 -8 -2 -31 5 -53 14 -21 9 -45 17 -53 17 -8 0 -11 5 -7 11 4 7 1 10 -7 7
-8 -3 -25 3 -39 12 -14 10 -27 18 -30 18 -3 0 -18 5 -33 11 -16 6 -32 11 -36
11 -5 0 -14 7 -21 15 -7 8 -19 14 -26 13 -7 -2 -20 6 -29 17 -9 11 -13 13 -9
5 7 -13 5 -13 -12 -1 -10 8 -34 29 -53 45 -19 17 -31 25 -27 19 4 -7 2 -13 -3
-13 -6 0 -11 7 -11 16 0 8 -5 12 -10 9 -6 -4 -29 9 -50 29 -22 20 -47 36 -55
36 -8 0 -15 5 -15 11 0 6 -7 9 -15 5 -8 -3 -14 0 -12 5 1 6 -15 20 -36 31 -22
12 -36 26 -33 33 3 8 -2 12 -11 11 -20 -3 -74 45 -65 58 14 22 9 32 -17 34
-46 3 -60 5 -58 11 2 10 -66 76 -75 73 -5 -1 -7 1 -4 6 3 5 -20 33 -50 61 -33
31 -53 58 -50 66 3 10 0 12 -12 8 -9 -3 -14 -3 -10 1 4 5 -5 19 -20 33 -15 14
-27 30 -27 36 -1 7 -7 11 -14 9 -7 -1 -10 2 -7 7 3 5 -1 15 -10 22 -17 14 -94
124 -94 134 0 3 5 3 12 -1 7 -4 8 -3 4 5 -4 6 -12 9 -17 5 -5 -3 -15 8 -22 25
-7 17 -17 28 -21 24 -4 -5 -7 -3 -6 2 5 22 -1 46 -9 41 -9 -6 -44 59 -44 82 0
6 -3 12 -7 12 -9 0 -80 155 -80 175 0 8 -4 15 -8 15 -9 0 -35 60 -33 77 1 7
-4 23 -11 35 -18 33 -37 88 -28 83 5 -3 0 12 -10 32 -10 21 -16 41 -13 46 2 4
0 14 -6 20 -5 7 -12 28 -14 47 -2 19 -9 53 -15 75 -6 22 -14 64 -17 94 -3 30
-8 57 -10 60 -14 23 -22 482 -8 504 3 5 8 46 10 91 1 45 3 91 4 104 1 12 5 22
9 22 5 0 7 9 5 20 -2 11 -1 20 3 20 4 0 8 10 9 23 4 50 10 83 20 102 6 11 8
26 5 34 -3 10 0 12 12 8 19 -7 20 -3 6 24 -6 10 -7 19 -2 19 8 0 10 6 14 48 0
9 6 20 12 24 6 4 15 31 21 60 7 37 15 54 27 56 15 3 17 -2 12 -30 -4 -18 -11
-37 -16 -43 -6 -6 -7 1 -3 20 5 27 4 28 -5 7 -5 -13 -8 -28 -5 -32 3 -5 0 -21
-7 -37 -6 -15 -12 -37 -14 -48 -1 -10 -7 -21 -13 -23 -6 -2 -11 -8 -11 -13 0
-6 4 -8 9 -5 10 7 -9 -66 -20 -74 -4 -3 -10 -32 -14 -65 -3 -32 -11 -66 -18
-74 -9 -12 -9 -13 1 -7 17 10 15 1 -4 -19 -12 -12 -13 -19 -4 -30 9 -10 9 -19
0 -32 -9 -15 -10 -14 -4 7 3 14 3 21 -2 17 -8 -8 -12 -99 -15 -352 -1 -120 6
-244 18 -313 3 -20 7 -44 7 -52 1 -9 6 -21 10 -28 4 -7 5 -19 2 -27 -3 -8 -1
-17 4 -20 6 -4 10 -11 10 -16 0 -6 -6 -7 -12 -2 -7 4 -5 -5 5 -20 9 -14 17
-42 17 -62 0 -25 4 -34 12 -29 7 5 9 2 5 -9 -3 -9 -1 -17 4 -19 6 -2 12 -19
15 -38 3 -19 9 -39 14 -45 8 -11 23 -61 25 -85 0 -8 6 -25 13 -38 7 -12 10
-28 6 -34 -4 -7 -3 -8 5 -4 7 5 13 -3 17 -23 4 -17 10 -28 15 -25 5 3 6 -3 2
-12 -4 -12 -3 -15 5 -10 7 4 12 4 13 -1 3 -33 12 -59 24 -73 8 -9 15 -20 15
-24 0 -4 7 -14 15 -22 18 -18 9 -45 -12 -37 -11 4 -14 2 -9 -6 4 -6 16 -9 27
-6 17 6 24 -3 20 -27 -2 -12 17 -10 24 2 3 6 1 10 -4 10 -6 0 -11 4 -11 9 0 5
9 7 20 4 11 -3 20 0 20 6 0 5 6 8 13 6 8 -3 13 6 14 25 1 16 -3 30 -8 30 -6 0
-9 7 -5 15 3 8 1 15 -4 15 -6 0 -10 7 -10 15 0 8 -7 15 -15 15 -9 0 -12 6 -9
15 4 8 1 15 -6 15 -7 0 -10 6 -7 14 3 8 -3 23 -13 33 -10 11 -21 34 -25 51 -3
18 -10 32 -14 32 -4 0 -8 6 -9 13 -2 23 -20 82 -22 72 -1 -5 -12 26 -26 70
-35 114 -34 112 -53 205 -5 25 -14 71 -20 103 -7 31 -9 62 -6 67 3 6 2 10 -3
10 -5 0 -10 48 -11 108 -1 59 -3 139 -5 177 -3 63 5 181 18 275 12 83 16 102
36 191 21 91 29 121 46 164 4 11 8 25 9 30 3 24 17 55 24 51 3 -2 6 8 5 22 -1
15 5 35 14 45 8 9 12 20 9 24 -4 3 0 17 8 30 9 13 13 29 9 35 -5 7 -3 8 6 3
10 -6 12 -4 7 8 -3 10 -2 17 3 17 5 0 13 12 16 26 5 18 11 23 23 19 13 -5 14
-4 3 6 -15 16 -16 33 0 23 8 -5 9 -2 5 10 -6 14 -3 17 8 12 9 -3 14 -2 11 3
-8 12 17 70 42 99 20 23 38 31 26 10 -4 -7 -3 -8 4 -4 6 4 9 13 6 21 -4 8 -11
12 -16 9 -6 -4 -5 3 1 15 7 11 16 21 21 21 6 0 9 3 8 8 -4 10 63 107 105 153
9 10 17 23 17 28 0 5 20 27 44 49 24 23 47 50 51 61 4 13 11 18 22 14 13 -5
15 -2 10 11 -4 9 -3 15 1 13 7 -5 33 18 28 24 -2 2 14 22 36 44 22 22 37 33
32 25 -7 -13 -5 -13 9 -1 9 7 14 18 10 24 -3 5 -2 7 4 4 5 -3 16 3 23 14 16
21 36 27 24 7 -4 -8 -3 -10 2 -5 5 5 9 12 9 16 0 16 41 57 54 53 10 -3 11 0 5
9 -6 12 -5 12 10 0 9 -8 14 -21 11 -30 -5 -13 -4 -13 6 -4 10 10 9 15 -1 28
-10 13 -9 15 6 15 15 0 16 2 5 9 -10 6 -5 12 18 22 17 8 31 19 31 25 0 6 14
17 30 24 17 7 35 21 41 31 5 10 16 16 24 13 8 -4 18 1 21 10 3 9 13 16 21 16
8 0 11 4 8 10 -4 6 1 7 11 3 12 -4 15 -3 10 5 -5 8 -2 10 8 6 9 -3 16 -1 16 6
0 6 4 9 9 5 6 -3 15 4 22 16 9 17 13 19 20 8 5 -8 9 -11 9 -6 0 18 5 23 38 39
34 15 37 15 49 0 11 -15 12 -15 9 4 -3 15 4 26 25 38 16 9 29 15 29 12 0 -3
16 3 36 14 19 11 39 18 45 15 5 -4 9 -1 9 5 0 7 7 9 16 6 8 -3 12 -2 9 4 -3 6
-4 10 -1 10 2 0 13 3 23 7 16 6 17 5 3 -12 -14 -17 -14 -17 7 -4 12 7 20 15
18 18 -4 3 188 71 202 71 2 0 1 -6 -3 -12 -4 -7 1 -6 12 3 32 26 48 34 39 18
-8 -12 -6 -12 8 0 9 7 28 11 42 9 13 -3 22 -2 20 3 -7 10 38 19 195 39 178 22
566 20 689 -3z m386 13 c3 -6 -1 -7 -9 -4 -18 7 -21 14 -7 14 6 0 13 -4 16
-10z m-1535 -10 c0 -10 -79 -34 -87 -26 -3 2 11 8 31 11 20 4 39 11 42 16 7
12 14 11 14 -1z m1658 -21 c13 -5 20 -14 16 -20 -5 -8 -9 -8 -14 1 -4 7 -18
14 -31 15 -38 4 -39 4 -39 16 0 10 16 7 68 -12z m-1779 -22 c-7 -7 -24 -13
-38 -14 -26 -1 -25 -1 4 12 38 18 49 18 34 2z m1861 -11 c0 -2 -7 -7 -16 -10
-8 -3 -12 -2 -9 4 6 10 25 14 25 6z m-1926 -14 c3 -5 -1 -9 -9 -9 -8 0 -12 4
-9 9 3 4 7 8 9 8 2 0 6 -4 9 -8z m1186 -6 c250 -9 536 -89 815 -228 342 -171
680 -475 871 -783 124 -201 183 -331 243 -535 50 -167 62 -230 78 -394 29
-304 -8 -626 -102 -883 -30 -79 -127 -294 -142 -312 -2 -3 -13 5 -25 16 l-21
21 25 44 c66 113 147 330 178 478 50 238 53 604 6 825 -47 219 -133 448 -236
626 -147 255 -426 547 -680 714 -198 130 -430 236 -641 293 -230 62 -364 76
-647 69 -194 -4 -245 -9 -350 -31 -321 -69 -553 -161 -786 -314 -56 -36 -105
-70 -111 -74 -5 -5 -46 -37 -90 -72 -389 -309 -651 -747 -747 -1251 -20 -104
-23 -152 -23 -360 0 -185 4 -258 17 -320 9 -44 19 -97 22 -117 12 -68 92 -292
146 -407 52 -110 53 -114 35 -128 -18 -13 -22 -12 -35 8 -47 70 -175 398 -193
494 -3 17 -15 80 -27 142 -20 101 -21 137 -18 365 4 226 8 266 32 380 42 204
144 485 208 580 10 14 18 29 18 32 0 13 102 170 171 263 145 196 418 438 622
552 280 156 422 211 712 273 106 22 181 31 305 37 91 3 181 6 200 4 19 -1 96
-4 170 -7z m-1220 -15 c0 -10 -23 -20 -67 -27 -20 -3 -24 -2 -13 5 8 5 18 7
22 5 4 -3 8 -1 8 5 0 6 7 8 15 5 8 -4 15 -1 15 5 0 6 5 11 10 11 6 0 10 -4 10
-9z m2040 -1 c12 -8 11 -10 -7 -10 -13 0 -23 5 -23 10 0 13 11 13 30 0z
m-2130 -41 c12 -8 10 -9 -9 -4 -18 6 -22 4 -16 -6 5 -8 5 -11 0 -7 -4 4 -17 3
-29 -3 -17 -8 -16 -6 4 10 29 24 30 24 50 10z m2200 0 c0 -5 5 -7 12 -3 7 4 8
3 4 -5 -6 -9 -12 -9 -24 1 -10 7 -19 14 -21 15 -2 2 3 3 12 3 10 0 17 -5 17
-11z m61 -26 c13 -15 12 -15 -8 -4 -24 12 -29 21 -14 21 5 0 15 -7 22 -17z
m-2346 -13 c-3 -5 -11 -10 -16 -10 -6 0 -7 5 -4 10 3 6 11 10 16 10 6 0 7 -4
4 -10z m2416 -28 c6 2 14 -3 16 -10 3 -8 -1 -10 -14 -5 -21 7 -53 38 -53 50 1
4 9 -2 20 -15 10 -12 24 -21 31 -20z m-2466 -2 c-10 -11 -23 -20 -28 -20 -6 0
0 9 13 20 13 11 25 20 28 20 3 0 -3 -9 -13 -20z m-80 -55 c-22 -19 -44 -34
-50 -34 -5 0 -4 3 3 6 6 2 12 9 12 14 0 6 -6 7 -12 3 -8 -4 -10 -3 -5 2 5 5
12 9 15 10 23 3 62 25 62 35 0 7 3 9 7 5 4 -4 -10 -23 -32 -41z m2618 20 c8
-8 18 -11 22 -7 5 4 5 1 1 -5 -5 -9 -1 -13 11 -13 27 0 63 -28 62 -48 0 -12
-3 -11 -9 5 -7 16 -14 21 -26 16 -12 -4 -15 -3 -10 5 4 7 1 12 -8 12 -18 0
-76 32 -76 43 0 12 18 8 33 -8z m-2698 -65 c-10 -11 -24 -20 -31 -20 -7 0 -18
-9 -24 -21 -7 -11 -14 -18 -17 -15 -9 8 27 46 43 46 7 0 18 9 24 21 7 11 14
18 17 15 4 -3 -2 -15 -12 -26z m2835 -20 c8 -5 11 -10 5 -10 -5 0 -17 5 -25
10 -8 5 -10 10 -5 10 6 0 17 -5 25 -10z m-2929 -47 c-12 -20 -14 -14 -5 12 4
9 9 14 11 11 3 -2 0 -13 -6 -23z m2979 7 c6 -11 15 -18 20 -15 5 3 11 -4 15
-15 4 -11 11 -18 16 -14 5 3 22 -9 37 -27 36 -42 51 -72 18 -36 -14 15 -30 27
-36 27 -5 0 -9 5 -7 12 1 7 -3 12 -8 13 -6 0 -21 10 -34 22 -13 12 -28 20 -33
17 -5 -3 -7 0 -6 8 2 7 -3 12 -10 10 -8 -1 -11 2 -7 8 10 16 23 12 35 -10z
m-3006 -35 c-4 -8 -10 -13 -14 -10 -4 2 -19 -6 -34 -20 -14 -13 -26 -21 -26
-17 1 10 30 48 30 38 0 -4 10 0 22 8 28 20 29 20 22 1z m-112 -74 c-8 -4 -13
-11 -12 -15 1 -4 -13 -21 -29 -38 -17 -18 -31 -28 -31 -23 0 5 -7 -1 -16 -13
-8 -12 -20 -22 -25 -22 -5 0 0 14 13 30 16 22 24 27 30 18 4 -7 8 -8 8 -3 0
15 53 75 65 75 6 0 4 -4 -3 -9z m3289 -46 c7 -13 3 -12 -10 5 -11 14 -21 30
-21 35 0 11 14 -7 31 -40z m43 -26 c-8 -13 -24 -1 -24 18 0 13 3 13 15 3 8 -7
12 -16 9 -21z m10 -21 c-5 -7 -2 -10 7 -6 8 2 22 -4 32 -14 9 -10 13 -18 8
-18 -6 0 -13 5 -16 11 -4 6 -13 8 -20 5 -14 -5 -28 18 -18 28 10 10 15 7 7 -6z
m-3489 -53 c-16 -13 -34 -24 -38 -25 -5 0 -5 -4 -2 -10 3 -5 -17 -33 -44 -61
-28 -29 -51 -46 -51 -40 0 6 7 14 15 17 8 4 15 11 15 18 0 6 9 17 20 24 12 7
18 18 14 24 -4 7 -3 8 4 4 7 -4 12 -2 12 5 0 16 52 66 70 68 8 0 2 -10 -15
-24z m3565 1 c0 -3 -4 -8 -10 -11 -5 -3 -10 -1 -10 4 0 6 5 11 10 11 6 0 10
-2 10 -4z m30 -36 c11 -11 20 -24 20 -30 0 -5 8 -10 18 -10 14 0 15 -2 2 -10
-8 -5 -10 -10 -5 -10 6 0 23 -11 39 -25 21 -18 25 -25 13 -25 -10 0 -17 5 -17
10 0 6 -5 10 -11 10 -12 0 -39 25 -39 37 0 15 -47 63 -55 55 -5 -4 -5 -1 -1 6
10 16 13 15 36 -8z m-3323 -103 c0 -7 -9 -14 -20 -14 -19 -2 -19 -2 -1 12 11
8 19 15 20 15 0 0 1 -6 1 -13z m-417 -31 c0 -8 -3 -16 -7 -18 -14 -5 -68 -83
-65 -91 1 -5 -1 -6 -5 -4 -12 8 -38 -16 -40 -35 -1 -35 -3 -39 -13 -33 -5 3
-10 0 -10 -8 0 -8 -11 -27 -25 -43 -14 -16 -25 -34 -25 -40 0 -6 -7 -17 -15
-24 -8 -7 -13 -16 -10 -20 4 -7 -17 -30 -42 -44 -9 -5 -11 -2 -7 8 3 8 15 18
26 22 13 4 17 9 9 13 -8 5 -6 13 6 27 10 11 19 26 21 34 2 8 10 22 18 31 8 9
11 19 7 22 -3 4 2 7 11 7 12 0 16 5 12 16 -3 8 -2 13 3 10 5 -3 14 6 20 22 12
31 55 82 71 82 5 0 10 5 10 11 0 5 -4 7 -10 4 -5 -3 -10 -1 -10 4 0 10 14 15
33 12 4 0 7 7 7 17 0 10 3 22 7 25 11 12 23 8 23 -7z m3794 -212 c3 -8 2 -12
-4 -9 -6 3 -10 10 -10 16 0 14 7 11 14 -7z m-4048 -179 c-9 -9 -14 -20 -11
-25 3 -5 2 -10 -3 -12 -11 -4 -61 -108 -67 -137 -5 -25 -23 -51 -35 -51 -12 0
1 44 17 56 7 7 13 16 11 20 -1 5 4 20 12 34 7 14 13 27 13 30 -1 3 3 4 8 3 13
-4 11 11 -3 26 -11 10 -9 11 7 5 11 -4 17 -4 13 1 -4 4 -1 14 7 21 8 8 11 22
8 31 -4 10 -2 14 5 9 6 -3 14 -1 17 5 4 5 9 8 12 5 3 -3 -2 -12 -11 -21z m257
-2020 c-3 -9 -8 -14 -10 -11 -3 3 -2 9 2 15 9 16 15 13 8 -4z m3791 -74 c3 -5
-1 -23 -10 -40 -15 -30 -12 -51 6 -51 5 0 18 16 30 35 23 38 37 44 47 19 3 -8
-4 -26 -18 -40 -18 -20 -21 -29 -13 -42 17 -26 36 -21 59 15 11 18 25 32 32
33 26 0 22 -22 -11 -66 -19 -25 -37 -51 -39 -57 -2 -7 -24 5 -53 29 -27 22
-62 48 -77 58 -31 19 -31 29 6 83 23 34 32 39 41 24z m-28 -176 c40 -30 74
-57 74 -59 0 -2 -6 -9 -14 -15 -10 -9 -24 -3 -62 29 -26 21 -50 38 -52 36 -2
-2 13 -27 32 -55 20 -28 36 -53 36 -56 0 -9 -70 5 -114 21 -21 8 -40 13 -42
11 -2 -1 19 -21 46 -42 54 -42 59 -52 34 -62 -10 -4 -35 13 -75 53 -83 82 -78
101 21 78 30 -7 56 -12 57 -11 1 1 -9 24 -22 51 -22 46 -24 76 -3 76 5 0 43
-25 84 -55z m-195 -130 c34 -18 69 -69 69 -102 0 -12 -12 -35 -26 -52 -39 -47
-85 -43 -136 9 -48 52 -49 81 -4 126 38 38 54 41 97 19z m-117 -163 c61 -59
73 -82 43 -82 -6 0 -26 14 -43 31 l-33 32 -26 -28 -25 -28 25 -27 c27 -28 31
-45 15 -55 -6 -4 -32 17 -58 46 -26 29 -55 61 -64 71 -10 10 -18 23 -18 28 0
18 35 11 48 -10 16 -26 33 -25 62 2 l23 22 -27 21 c-20 16 -24 23 -14 33 16
16 17 16 92 -56z m-18 -87 c1 -8 -1 -15 -6 -15 -10 0 -20 26 -13 34 8 8 16 -1
19 -19z m-3160 -187 c4 -7 3 -8 -4 -4 -7 4 -12 2 -12 -4 0 -6 -5 -8 -11 -4 -8
4 -7 9 2 15 18 11 17 11 25 -3z"/>
<path d="M3780 4270 c-9 -6 -10 -10 -3 -10 6 0 15 5 18 10 8 12 4 12 -15 0z"/>
<path d="M3816 4258 c3 -5 10 -6 15 -3 13 9 11 12 -6 12 -8 0 -12 -4 -9 -9z"/>
<path d="M1839 4196 c-2 -2 -20 -6 -39 -9 -97 -15 -130 -33 -130 -67 0 -34 22
-53 61 -52 16 0 27 -3 24 -9 -4 -5 2 -6 11 -2 11 4 15 2 11 -4 -4 -6 0 -13 7
-16 8 -3 16 -1 18 5 2 6 20 -3 40 -20 19 -17 38 -28 42 -25 4 4 4 0 1 -8 -3
-9 1 -22 10 -29 13 -11 15 -86 15 -639 -1 -473 -4 -631 -13 -646 -13 -22 -54
-35 -41 -13 4 7 3 10 -2 5 -5 -5 -9 -16 -9 -25 0 -9 -9 -18 -20 -20 -11 -2
-35 -11 -52 -19 -24 -11 -32 -21 -29 -37 5 -38 34 -42 271 -41 199 1 227 3
242 18 19 19 11 44 -18 58 -36 18 -75 32 -82 31 -4 -1 -10 5 -13 13 -3 8 -10
12 -15 9 -5 -3 -9 3 -9 13 -1 10 -2 240 -4 512 -3 489 -3 494 16 470 10 -13
25 -31 33 -41 7 -9 12 -18 11 -20 -2 -1 17 -23 42 -48 25 -24 42 -38 37 -31
-6 10 -4 12 4 7 7 -5 10 -15 7 -23 -3 -8 -2 -12 3 -9 9 6 51 -30 51 -44 0 -6
4 -9 8 -7 5 1 23 -13 40 -32 18 -18 32 -29 32 -25 0 5 5 1 11 -8 5 -10 10 -20
10 -23 0 -2 10 -15 23 -28 13 -13 32 -51 41 -83 10 -32 22 -69 28 -81 5 -12 7
-29 3 -38 -3 -10 -2 -14 5 -9 7 4 9 -4 6 -25 -3 -17 -2 -31 3 -31 4 0 11 -16
14 -35 4 -19 20 -60 36 -91 17 -31 30 -60 30 -66 0 -5 6 -16 13 -23 29 -33 33
-41 29 -53 -2 -7 5 -16 17 -19 12 -3 21 -11 21 -19 0 -7 11 -21 25 -30 14 -9
23 -20 20 -24 -3 -5 0 -12 6 -16 8 -5 9 -3 4 7 -5 8 11 -7 36 -32 53 -56 103
-91 115 -81 4 4 2 -2 -6 -12 -14 -18 -14 -19 9 -6 21 11 23 10 18 -4 -4 -10
-3 -15 2 -12 5 3 14 -1 21 -10 7 -8 19 -13 27 -10 7 3 13 2 13 -3 0 -8 56 -25
73 -22 4 0 7 -3 7 -8 0 -11 49 -21 132 -26 36 -3 70 -5 75 -7 4 -1 28 2 53 6
74 14 93 62 38 96 -20 12 -41 17 -55 13 -17 -4 -23 -1 -21 8 2 7 -3 14 -9 15
-7 1 -18 2 -24 3 -5 0 -7 6 -4 11 4 6 1 9 -5 8 -7 -2 -21 12 -32 31 -19 33
-19 57 -19 640 1 576 2 607 20 631 10 14 26 24 35 22 9 -2 16 2 16 8 0 5 3 9
8 9 36 -6 72 19 72 50 0 9 -12 23 -27 31 -40 21 -441 13 -464 -10 -35 -32 20
-80 91 -80 16 0 30 -7 34 -16 3 -9 11 -12 18 -8 7 4 10 3 5 -1 -4 -5 -1 -16 7
-24 13 -14 15 -80 17 -399 0 -211 -2 -386 -5 -389 -3 -4 -14 2 -25 13 -39 41
-79 72 -86 66 -3 -3 -3 1 1 11 3 10 1 17 -6 17 -6 0 -8 5 -4 13 6 9 5 9 -7 0
-13 -11 -20 -8 -40 15 -13 15 -23 30 -21 35 1 4 -3 7 -9 7 -13 0 -105 70 -93
70 5 0 1 5 -9 11 -9 6 -14 16 -11 22 4 7 3 9 -1 4 -10 -8 -67 50 -100 104 -13
20 -30 58 -38 85 -14 47 -40 111 -74 181 -8 18 -11 38 -7 45 4 7 4 10 -1 6 -4
-4 -30 32 -57 80 -28 48 -56 94 -64 103 -8 8 -14 22 -14 29 0 7 -3 11 -6 8 -7
-8 -59 42 -67 65 -4 9 -10 17 -14 16 -18 -3 -52 14 -47 22 3 5 2 9 -3 8 -19
-3 -34 2 -29 10 4 5 -2 7 -12 4 -10 -2 -24 2 -31 11 -7 8 -19 12 -27 9 -8 -3
-14 -1 -14 3 0 5 -12 10 -27 10 -16 1 -73 5 -129 8 -55 3 -102 4 -105 2z m251
-47 c25 -5 69 -21 98 -36 56 -29 142 -102 142 -121 0 -7 4 -12 9 -12 20 0 128
-211 180 -355 62 -166 104 -222 289 -385 89 -78 252 -239 253 -250 1 -6 2 -13
3 -17 1 -5 11 -25 24 -45 13 -21 25 -50 28 -65 8 -44 17 -42 10 2 -4 22 -7 49
-9 60 -1 11 -6 26 -10 33 -5 6 -5 16 -2 22 3 6 -1 7 -10 4 -13 -5 -15 -2 -9
20 4 16 2 26 -5 26 -6 0 -8 -8 -4 -17 6 -16 5 -16 -10 -4 -15 12 -17 51 -17
433 0 365 -2 424 -16 454 -21 44 -71 74 -122 74 -31 0 -41 4 -45 20 -5 20 0
20 225 20 213 0 229 -1 226 -17 -2 -13 -16 -20 -52 -24 -38 -4 -55 -12 -77
-37 l-29 -32 0 -611 c0 -580 1 -612 19 -652 24 -52 66 -84 131 -99 37 -8 50
-16 50 -29 0 -25 -52 -33 -159 -26 -123 8 -216 43 -328 123 -59 42 -181 168
-206 211 -7 12 -26 46 -43 77 -28 49 -84 218 -84 256 -1 26 -45 144 -65 175
-11 16 -45 52 -75 80 -111 102 -290 290 -280 293 6 2 61 -50 124 -115 63 -65
116 -116 119 -113 3 3 -22 35 -57 70 -76 79 -181 208 -207 252 -73 127 -90
196 -66 266 11 31 11 42 3 42 -16 0 -36 -58 -36 -106 0 -47 23 -120 56 -178
l24 -41 0 -538 c0 -478 2 -543 16 -573 18 -37 73 -73 119 -76 17 -2 25 -8 25
-20 0 -17 -16 -18 -240 -18 -204 0 -239 2 -234 14 3 8 20 18 37 22 17 3 48 17
69 30 71 45 68 13 68 705 l0 622 -24 42 c-28 47 -113 98 -181 109 -49 8 -61
42 -19 52 95 24 270 25 374 3z"/>
<path d="M2070 4120 c0 -5 6 -10 14 -10 23 0 101 -71 155 -140 27 -36 59 -77
71 -92 19 -25 130 -233 207 -390 18 -37 51 -97 73 -134 43 -71 44 -74 31 -74
-7 0 -29 28 -83 109 -10 14 -27 44 -38 66 -78 158 -192 370 -225 420 -51 78
-164 215 -177 215 -9 0 5 -24 23 -40 14 -13 95 -121 127 -170 39 -60 117 -205
183 -340 49 -99 100 -183 138 -224 20 -22 22 -26 6 -18 -29 15 -109 102 -201
217 -43 55 -83 104 -87 110 -95 116 -185 278 -212 380 -17 65 -25 80 -25 44 1
-106 98 -289 254 -478 75 -90 95 -118 79 -107 -7 4 -13 2 -13 -3 0 -6 4 -11
10 -11 5 0 38 -28 72 -62 35 -35 90 -85 123 -111 72 -58 150 -147 201 -231
114 -186 232 -346 255 -346 33 0 -23 134 -100 240 -57 77 -155 182 -214 229
-34 26 -87 92 -87 108 0 3 7 2 16 -1 15 -6 15 -4 1 18 -27 41 -76 133 -179
339 -102 204 -155 297 -169 297 -4 0 -10 8 -13 18 -8 25 -113 130 -158 158
-40 26 -58 30 -58 14z m831 -1193 c7 -18 19 -36 26 -40 7 -4 13 -15 13 -24 0
-9 -18 8 -40 37 -42 57 -49 73 -26 64 8 -3 20 -20 27 -37z m74 -107 c-3 -5 -1
-10 6 -10 7 0 10 -3 6 -6 -9 -9 -28 6 -22 17 4 5 8 9 11 9 3 0 2 -4 -1 -10z"/>
<path d="M1865 4080 c-3 -6 1 -7 9 -4 18 7 21 14 7 14 -6 0 -13 -4 -16 -10z"/>
<path d="M2116 3987 c3 -10 9 -15 12 -12 3 3 0 11 -7 18 -10 9 -11 8 -5 -6z"/>
<path d="M3006 3981 c-3 -4 4 -7 14 -6 27 2 33 10 10 12 -11 1 -22 -2 -24 -6z"/>
<path d="M3145 3949 c-4 -6 -5 -12 -2 -15 2 -3 7 2 10 11 7 17 1 20 -8 4z"/>
<path d="M3071 3934 c0 -11 3 -14 6 -6 3 7 2 16 -1 19 -3 4 -6 -2 -5 -13z"/>
<path d="M2190 3891 c0 -6 5 -11 10 -11 6 0 9 -3 9 -7 -3 -20 2 -33 12 -33 8
0 9 4 0 13 -6 8 -9 16 -6 19 3 3 -1 11 -10 18 -10 8 -15 9 -15 1z"/>
<path d="M2010 3815 c0 -8 4 -15 10 -15 5 0 7 7 4 15 -4 8 -8 15 -10 15 -2 0
-4 -7 -4 -15z"/>
<path d="M2395 3820 c-3 -5 -1 -10 4 -10 6 0 11 5 11 10 0 6 -2 10 -4 10 -3 0
-8 -4 -11 -10z"/>
<path d="M2221 3784 c0 -11 3 -14 6 -6 3 7 2 16 -1 19 -3 4 -6 -2 -5 -13z"/>
<path d="M2296 3677 c3 -10 9 -15 12 -12 3 3 0 11 -7 18 -10 9 -11 8 -5 -6z"/>
<path d="M2320 3655 c-9 -10 -9 -15 -1 -15 6 0 11 -8 11 -17 0 -15 2 -16 10
-3 6 10 6 16 0 18 -6 2 -10 8 -10 13 0 6 5 7 12 3 7 -4 8 -3 4 4 -9 15 -11 15
-26 -3z"/>
<path d="M2360 3580 c0 -5 5 -10 11 -10 5 0 7 5 4 10 -3 6 -8 10 -11 10 -2 0
-4 -4 -4 -10z"/>
<path d="M1982 3530 c0 -14 2 -19 5 -12 2 6 2 18 0 25 -3 6 -5 1 -5 -13z"/>
<path d="M2663 3317 c0 -7 9 -13 19 -13 10 0 18 1 18 3 0 1 -8 7 -18 12 -13 7
-19 6 -19 -2z"/>
<path d="M2700 3277 c0 -11 -6 -14 -17 -10 -10 3 -15 3 -12 -1 14 -15 48 -14
61 2 7 9 8 14 4 10 -5 -4 -15 -3 -23 3 -10 9 -13 8 -13 -4z"/>
<path d="M2530 3275 c0 -5 5 -17 10 -25 5 -8 10 -10 10 -5 0 6 -5 17 -10 25
-5 8 -10 11 -10 5z"/>
<path d="M2736 3241 c5 -5 20 -12 34 -16 24 -7 24 -7 5 9 -21 16 -56 23 -39 7z"/>
<path d="M2705 3217 c104 -77 187 -153 237 -218 66 -85 128 -196 128 -230 0
-30 16 -56 27 -45 16 16 4 95 -22 147 -54 106 -175 231 -321 330 -60 41 -100
54 -49 16z"/>
<path d="M2556 3220 c7 -8 10 -27 9 -42 -2 -15 0 -30 4 -32 4 -3 8 5 8 16 2
28 12 35 23 18 7 -10 10 -11 10 -2 0 33 20 4 45 -65 61 -172 173 -333 277
-399 55 -35 65 -29 21 14 -38 37 -103 116 -103 126 0 3 -20 34 -45 70 -25 37
-45 68 -45 71 0 15 -152 235 -162 235 -9 0 -9 -3 0 -12 24 -24 11 -29 -20 -7
-18 13 -28 17 -22 9z"/>
<path d="M2800 3211 c0 -10 19 -25 25 -20 1 2 -3 10 -11 17 -8 7 -14 8 -14 3z"/>
<path d="M2590 3121 c0 -29 48 -171 65 -191 7 -8 16 -25 19 -37 9 -29 78 -116
124 -157 51 -46 132 -81 132 -58 0 5 -19 15 -42 23 -32 10 -55 30 -101 86 -33
40 -66 85 -74 101 -8 15 -20 34 -27 42 -23 29 -53 95 -66 145 -15 57 -30 80
-30 46z"/>
<path d="M3087 3048 c9 -10 17 -18 17 -18 1 0 2 8 2 18 0 10 -8 18 -18 18 -16
0 -16 -2 -1 -18z"/>
<path d="M3102 2693 c-6 -2 -9 -10 -5 -16 4 -6 0 -8 -9 -4 -9 3 -25 -1 -36 -8
-10 -8 -21 -12 -23 -10 -9 9 -89 22 -89 15 0 -10 56 -30 64 -23 3 3 11 1 18
-5 17 -14 91 19 94 42 1 9 2 16 1 15 -1 0 -8 -3 -15 -6z"/>
<path d="M2847 2659 c7 -7 15 -10 18 -7 3 3 -2 9 -12 12 -14 6 -15 5 -6 -5z"/>
<path d="M1947 2653 c-4 -3 -7 -11 -7 -17 0 -6 5 -5 12 2 6 6 9 14 7 17 -3 3
-9 2 -12 -2z"/>
<path d="M3136 2623 c-6 -14 -5 -15 5 -6 7 7 10 15 7 18 -3 3 -9 -2 -12 -12z"/>
<path d="M2947 2601 c-17 -6 -16 -8 9 -20 24 -10 26 -10 15 2 -9 12 -9 16 1
20 7 3 9 5 3 6 -5 0 -18 -4 -28 -8z"/>
<path d="M3037 2569 c7 -7 15 -10 18 -7 3 3 -2 9 -12 12 -14 6 -15 5 -6 -5z"/>
<path d="M3205 2549 c-4 -6 -5 -12 -2 -15 2 -3 7 2 10 11 7 17 1 20 -8 4z"/>
<path d="M3226 2531 c-3 -5 1 -11 9 -14 9 -4 12 -1 8 9 -6 16 -10 17 -17 5z"/>
<path d="M1300 4150 c0 -5 5 -10 10 -10 6 0 10 5 10 10 0 6 -4 10 -10 10 -5 0
-10 -4 -10 -10z"/>
<path d="M3686 4142 c-2 -4 4 -9 15 -9 11 -1 17 2 14 8 -7 11 -22 12 -29 1z"/>
<path d="M1298 4123 c7 -3 16 -2 19 1 4 3 -2 6 -13 5 -11 0 -14 -3 -6 -6z"/>
<path d="M2295 4070 c3 -5 8 -10 11 -10 2 0 4 5 4 10 0 6 -5 10 -11 10 -5 0
-7 -4 -4 -10z"/>
<path d="M4130 4026 c0 -2 7 -9 15 -16 13 -11 14 -10 9 4 -5 14 -24 23 -24 12z"/>
<path d="M4120 4006 c0 -2 8 -10 18 -17 15 -13 16 -12 3 4 -13 16 -21 21 -21
13z"/>
<path d="M1860 3971 c0 -6 4 -13 10 -16 6 -3 7 1 4 9 -7 18 -14 21 -14 7z"/>
<path d="M4187 3939 c7 -7 15 -10 18 -7 3 3 -2 9 -12 12 -14 6 -15 5 -6 -5z"/>
<path d="M4205 3909 c-4 -6 -5 -12 -2 -15 2 -3 7 2 10 11 7 17 1 20 -8 4z"/>
<path d="M4586 3655 c4 -8 11 -15 16 -15 6 0 5 6 -2 15 -7 8 -14 15 -16 15 -2
0 -1 -7 2 -15z"/>
<path d="M4480 3592 c6 -13 14 -21 18 -18 3 4 -2 14 -12 24 -18 16 -18 16 -6
-6z"/>
<path d="M400 3366 c0 -2 7 -7 16 -10 8 -3 12 -2 9 4 -6 10 -25 14 -25 6z"/>
<path d="M4640 3295 c0 -5 5 -17 10 -25 5 -8 10 -10 10 -5 0 6 -5 17 -10 25
-5 8 -10 11 -10 5z"/>
<path d="M1395 2272 c-3 -4 -19 -8 -33 -8 -50 -3 -53 -4 -47 -14 8 -14 -8 -13
-22 1 -9 9 -11 8 -10 -2 4 -24 18 -40 42 -49 22 -8 24 -15 27 -98 3 -87 2 -90
-19 -90 -14 0 -31 13 -45 34 -13 19 -27 34 -31 34 -5 0 -5 5 -1 12 5 8 2 9 -9
5 -9 -3 -16 -3 -14 2 1 5 -14 26 -33 47 -19 21 -48 54 -63 73 -30 37 -37 40
-108 46 -56 4 -94 -13 -95 -43 -1 -12 1 -21 3 -18 9 9 30 -19 25 -33 -3 -8 -1
-12 4 -9 5 4 9 -66 9 -172 0 -106 -4 -176 -9 -172 -5 3 -7 -2 -3 -11 3 -8 -1
-21 -9 -27 -19 -17 -18 -34 5 -54 16 -14 23 -15 41 -6 18 10 21 9 15 -1 -5 -7
-4 -10 2 -6 18 11 64 16 58 6 -4 -5 -11 -6 -17 -3 -7 4 -8 2 -4 -4 5 -8 16 -5
36 10 16 12 28 24 26 27 -32 66 -59 136 -38 104 4 -6 6 40 6 103 -1 70 2 111
8 108 5 -3 7 -8 4 -11 -3 -3 6 -16 20 -30 13 -13 21 -29 18 -35 -4 -6 -3 -8 3
-5 12 8 75 -68 71 -85 -2 -7 2 -13 7 -13 5 0 9 7 7 15 -2 10 1 9 9 -4 6 -10
19 -26 28 -35 42 -44 78 -89 98 -121 12 -19 23 -30 23 -24 0 5 -3 14 -7 20 -5
5 -1 2 7 -7 17 -17 36 -15 63 9 15 13 17 37 17 223 0 130 4 210 10 214 6 4 7
11 4 17 -5 7 -1 9 9 5 12 -4 14 -2 10 10 -5 12 -3 14 8 8 8 -5 3 5 -11 21 -14
17 -32 30 -40 29 -8 -1 -22 1 -31 6 -9 5 -20 5 -24 1z m-303 -46 c7 -7 54 -60
103 -117 50 -57 109 -123 133 -147 23 -24 42 -48 42 -53 0 -5 3 -9 8 -9 4 0 6
64 4 142 -3 125 -6 146 -23 164 -10 11 -19 23 -19 27 0 4 29 7 65 7 36 0 65
-3 65 -6 0 -3 -9 -17 -20 -31 -19 -24 -20 -41 -20 -243 0 -210 -1 -218 -19
-213 -11 3 -37 26 -59 52 -22 26 -69 79 -104 117 -97 108 -130 145 -165 187
l-33 39 0 -171 c0 -158 2 -173 20 -191 11 -11 20 -22 20 -25 0 -3 -30 -5 -66
-5 l-65 0 20 26 c20 25 21 40 21 220 l0 193 -25 19 c-14 11 -25 23 -25 26 0
13 129 6 142 -8z m228 -8 c0 -6 -6 -5 -15 2 -8 7 -15 14 -15 16 0 2 7 1 15 -2
8 -4 15 -11 15 -16z m37 -233 c0 -11 -4 -12 -14 -4 -7 6 -13 15 -13 20 0 5 6
6 13 3 8 -3 14 -11 14 -19z"/>
<path d="M3815 2270 c-11 -4 -26 -5 -32 -3 -7 3 -13 0 -13 -7 0 -6 -4 -8 -10
-5 -12 8 -61 -25 -54 -36 3 -5 -3 -6 -13 -2 -10 3 -15 2 -10 -2 4 -5 -1 -17
-10 -28 -20 -21 -25 -132 -8 -145 6 -4 19 -18 30 -31 15 -19 16 -23 4 -19 -9
4 -16 1 -16 -6 0 -6 8 -12 18 -12 10 0 15 4 13 8 -3 4 5 8 18 8 18 0 20 -2 8
-10 -13 -8 -12 -10 3 -10 9 0 17 -4 17 -10 0 -5 6 -7 13 -4 18 6 129 -40 120
-51 -5 -4 0 -5 10 -2 10 4 16 3 13 -2 -3 -5 1 -11 9 -14 14 -6 13 -44 -2 -58
-15 -13 -101 -20 -108 -9 -4 6 -16 8 -28 5 -18 -5 -19 -4 -7 5 12 10 11 11 -6
7 -16 -3 -25 2 -33 19 -6 13 -16 24 -22 24 -6 0 -8 7 -5 16 3 8 2 12 -4 9 -6
-3 -10 1 -10 9 0 23 -23 19 -40 -6 -31 -49 -18 -168 18 -168 6 0 12 -5 14 -12
3 -9 43 -12 140 -13 75 0 134 3 132 6 -2 4 3 10 12 13 10 4 13 2 8 -6 -4 -7
-3 -8 4 -4 7 4 12 15 12 24 0 15 2 15 10 2 9 -13 10 -13 10 0 0 9 8 23 18 32
44 42 45 44 39 170 -1 9 -5 14 -9 12 -4 -3 -9 2 -9 10 -3 29 -4 34 -12 42 -4
4 -17 9 -29 11 -12 2 -26 9 -30 16 -4 6 -8 8 -8 3 0 -5 -7 -3 -15 4 -8 7 -15
9 -15 5 0 -4 -15 2 -34 13 -25 15 -36 17 -40 9 -3 -9 -5 -9 -5 1 -1 6 -10 12
-21 12 -18 0 -25 11 -21 33 1 5 -3 6 -9 2 -6 -3 -8 -12 -4 -18 3 -7 -2 -3 -10
8 -21 25 -15 41 13 38 12 -2 20 0 18 5 -6 9 36 8 81 -2 27 -6 31 -10 21 -22
-10 -12 -9 -13 4 -8 12 4 20 -2 27 -20 13 -36 57 -36 66 0 4 15 9 21 14 15 3
-7 6 9 5 34 -1 25 -5 48 -9 52 -3 3 0 13 7 21 10 13 9 15 -6 9 -10 -4 -16 -3
-12 2 9 16 -15 24 -89 27 -39 2 -80 6 -91 8 -11 2 -29 1 -40 -4z m168 -36 l37
-7 0 -63 c0 -69 -11 -80 -34 -36 -27 53 -52 67 -123 67 -56 0 -67 -3 -84 -24
-40 -49 -13 -81 111 -127 106 -40 155 -81 166 -139 8 -43 -28 -111 -72 -137
-44 -25 -138 -33 -233 -18 l-81 12 0 64 c0 35 3 64 8 64 4 0 17 -16 29 -35 31
-47 76 -69 145 -69 66 -1 111 25 116 67 7 54 -25 79 -172 132 -26 10 -63 31
-82 47 -30 26 -34 36 -34 77 0 40 5 52 33 78 17 17 41 35 52 41 22 12 157 16
218 6z m63 -226 c3 -4 -1 -5 -10 -4 -8 1 -18 5 -22 8 -3 4 1 5 10 4 8 -1 18
-5 22 -8z"/>
<path d="M1486 2262 c-3 -6 -1 -14 5 -17 15 -10 25 3 12 16 -7 7 -13 7 -17 1z"/>
<path d="M1723 2255 c-18 -6 -35 -14 -40 -18 -4 -5 1 -5 12 -1 18 7 18 6 6 -9
-13 -16 -8 -22 14 -17 5 1 1 -9 -10 -21 -11 -12 -15 -19 -9 -16 15 9 27 -20
12 -29 -7 -5 -8 -2 -3 6 5 9 4 11 -3 6 -7 -4 -12 -15 -12 -25 0 -9 -6 -23 -12
-30 -11 -11 -10 -13 0 -7 7 4 4 -7 -7 -27 -11 -19 -18 -37 -15 -40 2 -2 -2
-10 -10 -16 -8 -7 -12 -20 -9 -28 4 -10 2 -14 -4 -10 -7 4 -14 -5 -18 -23 -4
-16 -18 -46 -32 -67 -17 -25 -19 -33 -7 -23 16 14 16 13 -1 -17 -11 -18 -23
-33 -27 -33 -4 0 -4 -7 -1 -17 4 -10 2 -14 -4 -10 -15 9 -25 -34 -11 -50 5 -7
14 -10 19 -7 5 3 9 0 9 -7 0 -8 5 -7 17 2 11 10 14 10 9 2 -4 -8 -1 -13 8 -13
9 0 16 6 16 13 0 7 3 8 8 2 11 -16 50 -11 69 8 16 16 17 20 3 45 -13 23 -14
31 -3 54 15 30 58 41 133 33 25 -2 48 -4 53 -4 4 -1 7 -8 7 -16 0 -8 6 -15 13
-15 9 0 8 -3 -2 -9 -9 -6 -10 -11 -2 -15 7 -5 1 -17 -17 -33 -15 -15 -20 -24
-10 -20 17 6 43 -16 35 -30 -6 -9 78 -11 88 -2 3 4 21 3 40 -1 19 -4 33 -4 30
0 -3 4 4 10 14 13 21 5 22 30 3 49 -7 7 -12 18 -12 25 0 7 -5 13 -10 13 -6 0
-9 3 -8 8 1 4 -5 23 -14 42 -29 63 -41 95 -42 105 -1 6 -13 35 -28 65 -14 30
-32 69 -39 85 -7 17 -15 34 -17 39 -3 5 2 6 9 2 8 -4 7 -2 -2 6 -9 7 -19 23
-23 34 -17 53 -88 75 -163 49z m127 -29 c0 -7 12 -40 26 -72 14 -33 35 -81 46
-109 12 -27 29 -68 38 -90 9 -22 30 -71 45 -109 16 -37 35 -70 42 -73 34 -13
6 -23 -67 -23 -82 0 -92 4 -63 25 15 11 14 16 -7 69 l-24 56 -101 0 -101 0
-17 -35 c-21 -45 -22 -73 0 -97 15 -17 13 -18 -58 -18 -72 0 -73 1 -52 18 21
16 193 399 193 429 0 8 -7 16 -15 19 -34 13 -11 24 50 24 49 0 65 -3 65 -14z"/>
<path d="M1770 2114 c-21 -55 -62 -159 -67 -166 -2 -5 32 -8 76 -8 50 0 81 4
81 11 0 14 -61 172 -71 183 -5 5 -13 -4 -19 -20z m42 -105 c20 -13 -4 -37 -35
-36 -36 2 -35 1 -10 58 l18 40 9 -28 c5 -15 13 -31 18 -34z"/>
<path d="M1756 1993 c-6 -14 -5 -15 5 -6 7 7 10 15 7 18 -3 3 -9 -2 -12 -12z"/>
<path d="M2124 2253 c-6 -7 -15 -9 -19 -5 -5 4 -5 1 -1 -5 4 -8 2 -13 -6 -13
-7 -1 -3 -9 10 -20 22 -18 23 -25 26 -210 3 -177 2 -192 -16 -216 -17 -21 -18
-27 -6 -41 11 -14 11 -16 -2 -9 -8 4 -6 1 4 -8 10 -8 23 -13 28 -10 5 3 82 6
173 6 90 1 162 4 160 8 -2 4 14 13 35 20 22 7 40 19 40 26 0 7 3 14 8 16 13 6
42 69 42 93 0 32 -28 95 -46 102 -12 4 -12 8 -2 21 12 14 10 14 -12 2 -14 -7
-22 -9 -18 -5 4 5 3 14 -4 22 -9 11 -7 12 8 6 17 -6 18 -5 5 11 -12 14 -12 17
0 14 10 -2 14 10 15 45 1 26 -2 50 -7 53 -14 8 -11 26 4 19 6 -4 -1 5 -18 19
-16 15 -42 32 -57 39 -16 6 -28 15 -28 19 0 4 -7 4 -17 1 -9 -4 -14 -2 -11 3
9 14 -273 12 -288 -3z m332 -42 c59 -33 81 -91 54 -142 -11 -20 -64 -52 -73
-43 -3 3 -8 1 -12 -5 -4 -7 4 -11 20 -11 59 0 125 -63 125 -118 0 -52 -42
-105 -105 -129 -31 -12 -335 -18 -335 -7 0 4 8 13 18 20 15 11 17 34 17 214 0
197 -1 202 -22 220 -13 10 -23 21 -23 25 0 4 66 5 148 3 132 -3 151 -6 188
-27z"/>
<path d="M2252 2110 l0 -80 58 0 c79 0 105 21 105 85 0 61 -19 75 -101 75
l-62 0 0 -80z m121 38 c-2 -5 0 -8 5 -8 5 0 9 -13 10 -30 0 -24 -4 -31 -24
-36 -13 -3 -24 -10 -24 -15 0 -5 -5 -9 -11 -9 -5 0 -8 4 -5 9 3 4 -5 6 -17 4
-22 -4 -25 7 -18 85 1 9 15 12 45 10 24 -2 42 -6 39 -10z"/>
<path d="M2337 2139 c7 -7 15 -10 18 -7 3 3 -2 9 -12 12 -14 6 -15 5 -6 -5z"/>
<path d="M2256 1894 l3 -99 50 -3 c119 -7 178 42 153 127 -14 46 -39 58 -142
67 l-66 7 2 -99z m103 55 c-9 -6 -4 -7 17 -3 21 4 34 1 44 -11 13 -16 23 -86
11 -82 -3 1 -6 -2 -6 -7 0 -5 -9 -12 -20 -16 -23 -8 -103 -5 -112 4 -4 4 -7
32 -7 64 l-1 57 44 2 c30 1 40 -2 30 -8z"/>
<path d="M2665 2259 c-11 -4 -15 -8 -10 -8 6 -1 3 -6 -5 -11 -10 -6 -11 -10
-2 -10 6 0 12 -5 12 -11 0 -5 -4 -7 -10 -4 -17 11 -11 -7 8 -21 15 -11 17 -32
17 -182 0 -95 4 -165 8 -159 6 8 7 5 3 -6 -3 -10 -6 -23 -6 -28 0 -6 -5 -7
-11 -3 -8 4 -9 -1 -4 -16 5 -17 4 -21 -5 -15 -9 5 -11 4 -6 -3 4 -7 2 -12 -4
-12 -7 0 -5 -11 5 -28 16 -26 21 -28 78 -27 34 1 67 -1 72 -6 6 -4 20 1 33 11
17 14 21 25 16 44 -3 14 -10 26 -15 26 -5 0 -9 87 -9 195 0 131 3 195 11 195
5 0 8 4 4 9 -3 5 3 12 13 16 26 8 24 51 -2 47 -10 -2 -15 1 -12 7 8 12 -149
12 -179 0z m162 -47 l-27 -28 0 -197 c0 -186 1 -198 20 -209 35 -22 22 -28
-65 -28 -87 0 -100 6 -65 28 19 11 20 23 20 211 0 185 -1 199 -20 216 -11 10
-20 22 -20 27 0 4 41 8 92 8 l92 0 -27 -28z"/>
<path d="M3092 2261 c2 -19 -4 -24 -13 -11 -9 12 -9 11 -3 -5 4 -11 7 -28 8
-37 0 -9 5 -14 11 -11 5 4 -1 -6 -14 -20 -14 -15 -20 -27 -14 -27 6 0 14 6 16
13 4 8 6 9 6 0 1 -6 -6 -18 -14 -26 -8 -8 -12 -17 -9 -20 3 -3 -4 -22 -15 -43
-12 -21 -21 -45 -21 -52 0 -7 -5 -10 -12 -6 -8 5 -9 0 -6 -14 4 -12 2 -20 -2
-17 -12 7 -23 -32 -14 -46 5 -8 3 -9 -6 -4 -9 6 -10 2 -5 -15 5 -15 4 -20 -4
-16 -7 5 -15 -10 -23 -39 -7 -25 -22 -56 -33 -68 -11 -12 -19 -26 -17 -31 2
-4 -4 -6 -12 -3 -11 4 -13 1 -9 -10 5 -12 3 -14 -7 -8 -9 5 -11 4 -6 -3 5 -8
13 -9 26 -2 13 7 21 6 30 -6 9 -10 30 -14 76 -13 35 1 61 6 58 10 -3 5 0 9 5
9 16 0 13 21 -6 43 -10 11 -12 17 -5 13 11 -7 12 -4 3 12 -8 15 -6 23 9 37 25
23 177 28 185 7 3 -8 3 -18 0 -23 -3 -5 -1 -18 5 -29 7 -13 7 -20 0 -20 -19 0
-10 -26 17 -51 14 -13 22 -17 18 -9 -7 12 -6 13 6 4 16 -13 46 -15 69 -7 24
10 34 9 43 -2 6 -7 10 -6 14 3 2 6 9 10 13 7 5 -3 14 4 20 16 10 17 8 25 -8
42 -18 20 -45 65 -47 77 0 3 -9 20 -18 38 -10 17 -14 32 -11 32 4 0 0 8 -9 18
-10 10 -14 21 -11 25 4 3 -5 26 -19 51 -14 26 -22 46 -17 46 5 0 -3 21 -18 47
-14 26 -27 61 -28 78 -3 46 -41 69 -119 71 -35 1 -64 -2 -63 -5z m135 -38 c6
-20 86 -216 135 -333 18 -41 43 -90 55 -107 l24 -33 -80 0 c-45 0 -81 2 -81 5
0 3 5 13 11 23 8 13 6 29 -8 67 l-19 50 -102 3 -101 3 -16 -37 c-19 -47 -19
-73 2 -96 15 -17 13 -18 -50 -18 -37 0 -67 3 -67 7 0 4 8 16 18 27 10 12 39
73 66 136 26 63 61 145 77 181 30 68 36 103 19 114 -25 15 -5 25 50 25 49 0
62 -3 67 -17z"/>
<path d="M3147 2118 c-3 -13 -19 -56 -36 -97 -17 -40 -31 -75 -31 -77 0 -2 37
-4 81 -4 93 0 89 -13 37 117 -18 46 -36 83 -39 83 -4 0 -9 -10 -12 -22z m20
-74 c-4 -4 2 -19 13 -34 22 -31 18 -40 -22 -40 -30 0 -39 25 -16 48 7 7 8 12
3 12 -6 0 -3 5 5 10 17 11 26 13 17 4z"/>
<path d="M3448 2252 c-11 -13 -11 -15 2 -8 9 4 8 1 -2 -7 -19 -15 -25 -67 -7
-67 5 0 7 -4 4 -10 -3 -5 2 -10 12 -10 14 0 15 -2 4 -9 -7 -5 -10 -14 -7 -20
5 -7 2 -10 -6 -9 -19 4 -22 -39 -5 -66 14 -20 53 -34 41 -14 -3 4 -2 8 3 8 4
0 21 11 37 25 16 13 32 22 36 20 4 -3 11 2 14 11 4 10 2 13 -7 8 -6 -4 -4 1 5
12 19 21 36 100 20 90 -5 -3 -8 5 -7 19 4 28 -13 37 -77 41 -33 1 -51 -2 -60
-14z m112 -31 c24 -46 4 -99 -51 -136 -21 -14 -43 -25 -49 -25 -20 0 -9 27 20
48 36 27 38 44 8 57 -26 11 -36 54 -16 66 25 16 77 10 88 -10z"/>
<path d="M3800 2139 c0 -5 5 -7 10 -4 6 3 10 8 10 11 0 2 -4 4 -10 4 -5 0 -10
-5 -10 -11z"/>
<path d="M3572 2070 c-7 -11 -8 -20 -3 -20 9 0 24 30 18 36 -1 2 -8 -6 -15
-16z"/>
<path d="M2965 2019 c-4 -6 -5 -12 -2 -15 2 -3 7 2 10 11 7 17 1 20 -8 4z"/>
<path d="M4726 1843 c-6 -14 -5 -15 5 -6 7 7 10 15 7 18 -3 3 -9 -2 -12 -12z"/>
<path d="M181 1704 c0 -11 3 -14 6 -6 3 7 2 16 -1 19 -3 4 -6 -2 -5 -13z"/>
<path d="M4810 1641 c0 -6 4 -13 10 -16 6 -3 7 1 4 9 -7 18 -14 21 -14 7z"/>
<path d="M1744 1571 c-33 -6 -45 -21 -33 -43 6 -11 9 -29 6 -39 -3 -10 -1 -17
4 -13 16 10 11 -204 -6 -229 -18 -28 -16 -65 4 -72 9 -4 17 -3 18 2 4 10 186
9 202 -1 6 -4 18 -1 26 6 8 7 22 19 30 27 9 7 14 19 11 27 -8 21 8 17 22 -6 7
-12 10 -25 7 -30 -4 -6 1 -7 11 -3 11 4 15 2 11 -4 -4 -6 14 -11 48 -12 35 -1
55 3 55 10 0 7 9 9 28 4 15 -4 33 -8 40 -8 6 0 12 -5 12 -11 0 -8 2 -8 8 0 4
6 14 13 22 16 17 5 22 58 5 55 -6 -1 -9 27 -8 81 1 45 -1 82 -5 82 -5 0 -17 8
-28 18 -38 36 -82 45 -119 26 -17 -9 -27 -9 -31 -2 -4 7 -10 4 -16 -6 -5 -9
-13 -14 -18 -11 -11 7 -24 -31 -15 -45 3 -5 2 -10 -2 -10 -5 0 -10 -10 -10
-22 -1 -13 1 -18 5 -11 4 7 13 9 20 4 9 -5 5 -14 -13 -31 -13 -12 -22 -27 -19
-31 3 -5 3 -9 0 -9 -3 0 -12 12 -19 27 -14 26 -15 26 -21 5 -4 -12 -11 -20
-16 -17 -5 3 -16 -2 -25 -11 -15 -15 -42 -19 -85 -13 -27 4 -19 52 10 65 27
12 60 0 56 -20 -2 -6 -1 -8 1 -3 3 4 11 7 18 7 17 0 25 23 25 68 -1 42 -23 91
-34 73 -4 -6 -12 -11 -18 -11 -7 0 -6 6 2 15 7 8 9 15 6 15 -4 0 -14 -7 -22
-15 -9 -8 -11 -15 -5 -15 6 0 8 -6 5 -13 -2 -7 -17 -13 -33 -13 -26 0 -27 2
-22 30 6 26 12 31 40 34 23 2 44 -4 63 -18 34 -25 52 -13 55 37 3 52 -20 64
-134 66 -55 1 -109 0 -119 -2z m232 -66 c2 -19 -1 -35 -6 -35 -6 0 -10 5 -10
11 0 23 -36 38 -92 39 l-58 0 0 -64 0 -65 33 0 c39 1 77 18 77 36 0 7 4 13 9
13 4 0 8 -25 8 -55 0 -55 -10 -73 -20 -35 -4 17 -14 20 -56 20 l-51 0 0 -65 0
-65 63 0 c70 0 78 4 99 44 12 22 16 25 21 13 3 -9 2 -19 -3 -22 -6 -4 -10 -19
-10 -36 l0 -29 -124 0 c-111 0 -125 -2 -128 -17 -3 -15 -5 -13 -10 5 -5 18 -1
25 18 32 24 9 24 11 24 145 0 124 -2 136 -20 147 -11 7 -20 15 -20 18 0 3 57
4 126 3 l127 -2 3 -36z m242 -91 c20 -13 22 -22 22 -98 0 -77 2 -84 21 -89 12
-3 18 -10 15 -16 -7 -11 -63 -4 -81 10 -6 4 -17 4 -25 -1 -24 -16 -92 -11
-112 7 -23 20 -23 55 0 75 23 21 89 41 113 35 14 -4 19 0 19 16 0 26 -28 57
-51 57 -28 0 -69 -22 -69 -37 0 -7 -4 -13 -9 -13 -5 0 -8 12 -7 27 3 23 10 29
47 40 49 13 83 9 117 -13z m-93 -43 c-3 -6 -11 -11 -17 -11 -6 0 -6 6 2 15 14
17 26 13 15 -4z m35 -1 c0 -5 -4 -10 -10 -10 -5 0 -10 5 -10 10 0 6 5 10 10
10 6 0 10 -4 10 -10z m-303 -26 c-3 -3 -12 -4 -19 -1 -8 3 -5 6 6 6 11 1 17
-2 13 -5z"/>
<path d="M2116 1304 c-9 -8 -16 -26 -16 -40 0 -21 4 -24 39 -24 41 0 51 11 51
56 0 20 -5 24 -29 24 -16 0 -37 -7 -45 -16z m46 -22 c4 -12 -1 -18 -13 -18
-11 0 -19 6 -19 14 0 7 5 10 10 7 6 -3 10 -1 10 4 0 17 7 13 12 -7z"/>
<path d="M2370 1495 c-12 -13 -26 -22 -30 -20 -11 7 -39 -39 -36 -58 1 -8 7
-21 14 -29 13 -16 19 -98 8 -116 -9 -15 14 -61 36 -67 10 -4 18 -11 18 -16 0
-5 17 -9 38 -9 38 0 102 31 102 50 0 17 17 11 64 -21 60 -40 130 -39 179 2 17
16 38 28 45 29 6 0 12 7 12 15 0 17 -34 37 -46 27 -4 -4 0 6 10 22 12 19 16
38 12 60 -4 17 -8 39 -9 48 -1 9 -5 14 -10 11 -5 -3 -13 0 -17 6 -4 7 -13 13
-21 14 -8 2 -20 6 -27 11 -21 13 -85 11 -90 -2 -2 -7 -10 -12 -18 -12 -8 0
-25 -11 -38 -25 -13 -13 -26 -22 -29 -20 -4 3 -5 2 -2 -2 3 -3 -1 -16 -9 -28
-16 -25 -14 -78 4 -100 17 -20 4 -19 -28 3 -48 33 -58 35 -23 5 l35 -30 -25
-16 c-26 -17 -40 -20 -82 -18 -39 1 -55 43 -49 132 4 65 3 69 -17 69 -12 0
-21 5 -21 10 0 6 6 10 14 10 8 0 28 17 45 37 l31 38 0 -38 0 -37 45 0 c25 0
45 -4 45 -10 0 -5 -20 -10 -45 -10 l-45 0 0 -85 0 -85 41 0 c28 0 39 4 36 13
-2 6 -13 12 -24 11 -17 0 -20 7 -22 58 -2 55 -1 58 22 58 25 0 57 27 57 48 0
7 -5 12 -11 12 -5 0 -7 5 -3 12 5 8 2 9 -9 5 -21 -8 -70 10 -63 22 6 10 -19
41 -33 41 -4 0 -18 -11 -31 -25z m362 -77 c16 -6 31 -22 37 -40 20 -57 19 -58
-79 -58 -49 0 -90 -3 -90 -6 0 -3 12 -21 26 -40 23 -29 32 -34 69 -34 26 0 48
6 55 15 14 17 30 20 30 5 0 -21 -65 -50 -110 -50 -73 0 -119 40 -120 103 0 55
26 94 75 111 40 14 57 13 107 -6z m4 -133 c-2 -5 -9 -9 -15 -7 -6 1 -11 -2
-11 -8 0 -5 -5 -10 -11 -10 -6 0 -9 6 -6 14 4 10 -1 13 -16 10 -21 -4 -21 -4
-2 4 26 12 66 10 61 -3z m74 -25 c0 -5 -2 -10 -4 -10 -3 0 -8 5 -11 10 -3 6
-1 10 4 10 6 0 11 -4 11 -10z"/>
<path d="M2617 1381 c-9 -16 -17 -32 -17 -35 0 -3 27 -6 60 -6 56 0 60 2 60
23 0 31 -18 47 -55 47 -23 0 -35 -7 -48 -29z"/>
<path d="M2571 1334 c0 -11 3 -14 6 -6 3 7 2 16 -1 19 -3 4 -6 -2 -5 -13z"/>
<path d="M2857 1454 c-20 -11 -27 -12 -27 -2 0 6 -6 3 -14 -8 -9 -12 -11 -23
-5 -28 5 -6 9 -18 9 -29 0 -10 5 -15 11 -12 7 5 10 -13 8 -56 -2 -63 -15 -102
-31 -93 -16 10 -8 -13 11 -30 11 -10 25 -14 36 -10 10 4 21 1 26 -7 7 -11 9
-11 9 -1 0 7 6 12 13 11 24 -3 37 1 37 12 0 8 -18 10 -55 7 -57 -5 -66 0 -40
22 11 9 15 34 15 95 0 75 -2 83 -22 93 -20 9 -15 11 31 11 43 1 52 -2 47 -14
-7 -20 1 -19 31 5 30 24 56 26 73 5 19 -23 5 -48 -19 -35 -30 16 -59 12 -71
-9 -18 -34 -12 -130 9 -157 18 -23 40 -17 26 7 -11 16 -18 68 -16 112 1 28 2
29 40 22 33 -5 42 -3 52 13 12 20 13 20 31 -3 10 -13 18 -30 18 -38 0 -9 5
-19 10 -22 6 -3 10 -15 10 -26 0 -10 4 -19 10 -19 5 0 13 -12 16 -27 4 -16 11
-31 16 -34 5 -3 3 -13 -6 -21 -8 -9 -12 -18 -9 -22 4 -3 -8 -3 -25 0 -21 4
-32 3 -32 -5 0 -6 -6 -11 -14 -11 -8 0 -18 -5 -22 -12 -5 -7 -3 -8 6 -3 10 6
12 4 7 -7 -3 -9 3 -25 15 -37 15 -17 27 -21 52 -17 48 8 63 15 70 34 3 9 10
24 15 32 22 33 60 124 55 132 -3 4 -1 8 4 8 5 0 9 6 9 13 0 22 43 106 58 115
14 7 13 11 -4 31 -15 17 -28 21 -59 20 -56 -4 -48 -23 13 -30 40 -5 45 -7 28
-14 -12 -4 -25 -17 -29 -29 -3 -11 -14 -39 -24 -61 -9 -22 -29 -70 -44 -106
-15 -36 -38 -78 -50 -94 -20 -25 -27 -27 -59 -21 -34 6 -36 9 -26 28 8 15 14
17 22 9 20 -20 43 -11 63 25 l19 36 -50 104 c-27 57 -55 104 -62 104 -6 0 -15
5 -18 10 -4 6 19 10 62 9 37 0 62 -3 56 -6 -19 -7 -16 -33 11 -103 l23 -63 18
49 c9 27 21 59 26 71 7 18 3 28 -19 50 -15 15 -35 26 -44 25 -10 -2 -18 2 -18
9 0 8 -4 8 -13 1 -7 -6 -18 -7 -25 -3 -15 9 -70 2 -78 -11 -4 -5 -10 -5 -17 1
-15 12 -59 17 -73 9 -12 -8 -55 -5 -69 4 -6 3 -22 0 -38 -8z m349 -13 c-3 -5
1 -14 8 -21 16 -13 18 -52 2 -43 -5 4 -7 -1 -3 -10 3 -9 1 -19 -6 -23 -7 -4
-9 -4 -5 1 4 4 0 14 -8 22 -11 12 -12 18 -3 29 6 8 9 20 6 28 -3 8 -3 17 0 20
9 9 15 7 9 -3z"/>
<path d="M612 1439 c-9 -14 -19 -18 -35 -14 -18 5 -19 4 -7 -5 11 -9 12 -13 2
-17 -6 -2 -10 -9 -6 -14 3 -5 -2 -9 -10 -9 -9 0 -16 -9 -16 -20 0 -12 -7 -20
-16 -20 -11 0 -15 -6 -11 -20 3 -11 0 -18 -6 -17 -6 1 -12 -4 -13 -10 -1 -7
-2 -14 -4 -15 -1 -2 -3 -13 -4 -25 -3 -28 33 -55 56 -42 12 7 14 4 10 -16 -5
-30 13 -55 39 -55 11 0 19 -5 19 -11 0 -5 -6 -7 -12 -3 -13 8 4 -17 31 -46 16
-16 41 -22 41 -9 0 5 11 16 26 25 35 24 48 5 19 -28 -12 -15 -25 -24 -28 -22
-3 3 -4 -3 -3 -13 0 -10 15 -28 32 -40 34 -24 54 -56 29 -46 -8 3 -13 9 -10
13 3 5 1 11 -4 14 -5 4 -8 -2 -7 -11 2 -10 16 -24 32 -32 36 -18 66 -50 57
-64 -3 -6 -1 -7 6 -3 14 9 51 -2 51 -15 0 -6 -9 -5 -22 1 -22 11 -22 10 -4 -4
10 -9 23 -13 27 -10 5 3 9 0 9 -7 0 -9 3 -9 14 0 10 8 16 9 21 1 3 -5 3 -10
-1 -10 -4 0 1 -9 10 -19 10 -11 15 -24 12 -29 -3 -5 6 -8 19 -7 17 2 26 -3 30
-16 4 -10 10 -19 15 -19 4 0 22 -13 40 -30 34 -32 46 -38 34 -17 -5 9 -4 9 6
0 20 -18 50 12 50 49 0 21 4 28 16 26 10 -2 23 9 33 27 17 33 29 41 39 29 4
-4 2 -4 -4 -1 -6 4 -10 -3 -8 -16 1 -12 3 -22 4 -22 1 0 3 -12 4 -27 1 -14 -1
-25 -5 -23 -6 5 -39 -59 -39 -77 0 -17 50 -59 62 -52 6 4 8 2 4 -4 -3 -6 9
-15 31 -23 34 -11 38 -10 55 11 10 12 16 26 13 30 -3 5 -1 11 3 14 5 3 8 -11
6 -32 -6 -53 14 -74 73 -76 31 -2 47 -7 46 -14 -2 -7 2 -12 8 -12 5 0 8 -4 4
-9 -3 -5 0 -13 6 -17 8 -4 9 -3 5 4 -4 7 -3 12 2 12 17 0 21 -28 6 -34 -9 -3
-12 -11 -9 -16 5 -8 11 -8 19 -1 7 6 17 7 21 3 5 -4 4 -1 0 7 -6 11 -4 13 11
7 10 -4 33 -10 49 -13 17 -3 38 -10 48 -15 12 -6 23 -5 33 3 12 10 18 6 16
-12 -1 -3 15 -11 35 -18 31 -12 37 -11 45 3 5 9 14 13 20 10 7 -4 8 -2 4 5
-14 22 -14 80 0 85 9 3 11 0 7 -11 -4 -10 -2 -14 4 -10 7 4 10 0 8 -10 -2 -10
-4 -18 -5 -18 -1 0 -3 -13 -4 -30 -1 -19 5 -38 17 -50 11 -11 16 -13 12 -5 -8
13 -7 13 8 1 12 -9 17 -10 17 -2 0 7 5 9 10 6 6 -3 10 1 10 10 0 9 5 13 11 10
6 -4 9 -1 8 6 -4 20 11 59 22 59 6 0 8 4 5 8 -3 5 8 19 25 31 16 12 27 26 24
30 -5 9 24 26 38 22 5 -1 6 3 2 9 -3 6 -10 8 -15 5 -5 -3 -15 3 -22 13 -12 17
-72 27 -62 11 2 -4 -3 -9 -11 -13 -8 -3 -17 0 -21 6 -5 7 -2 8 7 4 8 -4 3 2
-11 13 -17 14 -33 19 -51 16 -18 -4 -33 1 -53 20 -15 14 -32 23 -37 20 -5 -4
-9 -2 -9 3 0 6 -7 13 -16 16 -9 3 -12 2 -9 -5 7 -10 -103 45 -114 58 -4 3 1 3
9 -2 12 -6 13 -5 3 5 -14 15 -55 22 -47 8 4 -5 12 -7 20 -4 22 8 17 -2 -7 -15
-12 -6 -19 -7 -15 -1 10 16 -78 9 -92 -8 -11 -13 -12 -12 -3 6 7 15 7 25 -2
34 -10 10 -9 11 3 6 8 -4 6 0 -4 8 -11 9 -24 16 -29 16 -4 0 -5 5 -1 11 4 7 1
10 -7 7 -8 -3 -20 2 -27 11 -11 13 -12 13 -7 1 4 -8 -2 -5 -12 6 -22 25 -83
42 -83 24 0 -6 -4 -9 -9 -6 -5 3 -14 -8 -21 -24 -14 -35 -25 -39 -27 -10 -1
13 2 18 9 14 7 -5 8 -2 2 7 -5 8 -7 21 -6 30 3 19 -23 71 -31 62 -4 -3 -7 -1
-7 5 0 7 -7 12 -15 12 -7 0 -18 7 -23 17 -6 10 -16 14 -26 10 -10 -4 -15 -3
-11 3 3 6 -2 10 -11 10 -10 0 -14 3 -10 7 7 7 -62 83 -77 83 -4 0 -5 -5 -1
-12 4 -7 3 -8 -5 -4 -6 4 -9 12 -6 17 4 5 -7 21 -24 35 -17 14 -30 31 -28 37
1 7 -6 11 -17 9 -12 -2 -16 1 -10 9 5 8 3 10 -5 5 -7 -5 -17 -1 -24 8 -16 22
-81 41 -74 21 3 -7 -1 -16 -8 -19 -23 -9 -26 10 -5 29 23 21 26 60 6 72 -7 4
-18 18 -24 29 -11 20 -62 32 -62 14 0 -4 -7 -10 -15 -14 -12 -4 -12 -1 2 21
16 24 16 26 0 38 -9 6 -13 16 -9 20 4 4 -5 6 -20 3 -23 -4 -26 -2 -22 17 4 24
-19 51 -35 41 -5 -3 -7 3 -4 14 7 26 1 25 -15 -1z m24 -44 c4 -9 -9 -34 -31
-60 -20 -25 -34 -45 -31 -45 3 0 28 14 57 31 37 21 55 27 63 19 11 -11 -11
-57 -47 -97 -27 -30 -18 -29 48 7 63 34 75 36 75 15 0 -10 -29 -30 -75 -52
-41 -19 -78 -39 -81 -44 -8 -13 -31 -11 -37 4 -3 7 8 32 25 56 16 24 27 46 24
48 -3 3 -25 -6 -49 -20 -47 -26 -82 -22 -62 7 6 7 30 44 54 80 45 68 57 77 67
51z m168 -163 c7 -11 -5 -27 -31 -41 -28 -14 -28 -19 1 -55 l24 -29 28 27 c16
14 33 25 39 23 26 -9 8 -37 -58 -94 -64 -55 -74 -60 -87 -47 -13 13 -11 18 20
44 l35 29 -27 28 -28 27 -29 -22 c-34 -25 -64 -29 -59 -8 4 17 137 125 155
126 6 0 14 -4 17 -8z m155 -163 c29 -34 31 -40 16 -46 -12 -4 -24 1 -36 15
-21 27 -35 28 -49 2 -8 -16 -7 -22 10 -32 11 -7 20 -18 20 -25 0 -18 -35 -16
-50 2 -12 14 -15 14 -31 -1 -18 -16 -18 -18 7 -47 18 -21 22 -33 14 -41 -7 -7
-22 2 -52 32 l-43 42 70 70 c38 38 74 70 80 69 5 0 25 -18 44 -40z m90 -84
c17 -20 31 -40 31 -46 0 -23 -23 -50 -54 -63 -26 -11 -35 -21 -40 -50 -7 -38
-15 -43 -33 -25 -8 8 -8 21 2 49 19 53 1 69 -32 29 -25 -29 -47 -30 -41 -3 3
15 118 143 129 144 4 0 21 -16 38 -35z m122 -96 c37 -29 43 -49 15 -49 -7 0
-23 10 -35 21 -19 18 -25 19 -32 8 -13 -22 -11 -33 11 -47 23 -14 27 -42 6
-42 -7 0 -19 7 -26 15 -17 20 -37 19 -49 -2 -8 -15 -4 -23 22 -45 26 -22 29
-30 18 -37 -10 -6 -27 0 -56 22 -37 28 -41 35 -32 52 15 30 101 134 111 134 4
1 26 -13 47 -30z m172 -101 c18 -12 34 -23 36 -24 2 -2 1 -10 -3 -19 -5 -15
-9 -14 -34 4 -22 15 -32 17 -40 9 -19 -19 -14 -34 13 -46 14 -6 25 -16 25 -21
0 -20 -22 -22 -47 -6 -21 14 -27 15 -34 4 -15 -24 -10 -38 21 -54 30 -16 38
-29 21 -39 -11 -7 -101 42 -101 55 0 5 18 39 40 75 22 36 40 70 40 75 0 16 31
10 63 -13z m80 -101 c-3 -29 -10 -58 -16 -65 -5 -7 -7 -15 -5 -18 3 -3 28 18
55 47 38 40 55 51 68 45 16 -6 7 -19 -58 -83 -97 -95 -105 -92 -87 39 14 106
17 113 35 98 10 -8 12 -26 8 -63z m197 -27 c22 -11 40 -25 40 -30 0 -18 -18
-19 -50 -4 -27 14 -34 14 -41 3 -16 -25 -10 -37 21 -44 34 -8 47 -22 32 -37
-8 -8 -20 -7 -42 2 -34 14 -37 13 -42 -14 -2 -15 5 -22 30 -29 21 -7 32 -16
32 -28 0 -11 -4 -19 -9 -19 -15 0 -101 41 -101 48 -1 24 66 172 77 172 8 0 32
-9 53 -20z m107 -42 c42 -18 63 -39 63 -62 -1 -25 -22 -56 -40 -56 -9 0 -10
-12 -5 -46 6 -41 5 -45 -12 -42 -10 2 -19 12 -21 23 -11 72 -26 86 -37 35 -7
-33 -45 -44 -45 -13 0 24 53 173 62 173 4 0 20 -5 35 -12z m125 -58 c-2 -16
-1 -37 2 -47 6 -14 12 -11 41 17 22 21 39 30 50 26 14 -5 9 -13 -24 -48 -22
-24 -47 -62 -56 -85 -9 -24 -21 -43 -25 -43 -17 0 -21 21 -11 53 9 27 8 44 -8
89 l-20 57 27 4 c15 2 27 5 28 6 0 0 -1 -12 -4 -29z m-380 -7 c-6 -2 -10 -9
-6 -14 3 -5 2 -9 -3 -10 -4 0 -18 -2 -30 -3 -22 -3 -22 -2 -5 15 9 10 26 18
37 18 11 0 14 -3 7 -6z"/>
<path d="M992 949 c-12 -18 -11 -24 0 -36 12 -12 17 -11 33 7 14 16 15 22 5
35 -17 20 -23 19 -38 -6z"/>
<path d="M1700 571 c0 -5 -3 -16 -6 -25 -5 -12 1 -16 24 -16 32 0 48 20 29 39
-13 13 -47 15 -47 2z"/>
<path d="M3321 1374 c0 -11 3 -14 6 -6 3 7 2 16 -1 19 -3 4 -6 -2 -5 -13z"/>
<path d="M2810 1340 c0 -5 5 -10 10 -10 6 0 10 5 10 10 0 6 -4 10 -10 10 -5 0
-10 -4 -10 -10z"/>
<path d="M2668 1163 c7 -3 16 -2 19 1 4 3 -2 6 -13 5 -11 0 -14 -3 -6 -6z"/>
<path d="M700 1085 c-14 -8 -20 -14 -14 -15 5 0 19 7 30 15 24 18 16 19 -16 0z"/>
<path d="M4484 1059 c-4 -7 -3 -9 4 -5 5 3 13 0 15 -6 4 -9 6 -10 6 -1 1 17
-16 25 -25 12z"/>
<path d="M3738 863 c-16 -20 -78 -44 -92 -36 -6 4 -5 -1 2 -10 12 -14 11 -16
-7 -12 -11 2 -20 1 -18 -3 1 -4 -9 -19 -22 -34 -17 -19 -28 -25 -36 -18 -15
12 -58 -17 -48 -33 5 -8 2 -8 -9 1 -21 17 -46 6 -63 -29 -14 -26 -14 -28 2
-22 10 3 15 3 11 -2 -4 -4 0 -14 8 -22 12 -12 12 -18 2 -31 -11 -13 -10 -15 3
-10 11 4 15 -1 15 -18 0 -29 -16 -32 -23 -4 -3 11 -8 18 -12 16 -4 -3 -8 4 -8
15 -1 12 3 17 10 13 7 -3 -3 8 -22 25 -72 66 -118 15 -71 -81 11 -22 17 -44
15 -49 -3 -4 5 -18 17 -30 13 -12 17 -19 11 -15 -7 4 -13 5 -13 2 0 -3 14 -13
31 -22 23 -12 34 -13 39 -4 4 6 21 12 38 12 17 1 29 4 27 8 -4 7 21 22 28 18
1 -1 24 11 50 25 27 15 46 23 42 17 -3 -6 0 -7 9 -4 9 3 16 10 16 16 0 19 26
33 64 35 22 2 46 9 55 17 9 7 26 17 39 21 12 3 20 10 17 14 -2 4 7 14 20 21
14 7 25 20 25 27 0 8 5 11 13 7 9 -5 9 -4 0 6 -6 7 -9 19 -6 26 3 8 -1 14 -11
14 -9 0 -16 5 -16 11 0 5 -4 7 -10 4 -5 -3 -10 3 -10 13 0 11 -7 23 -16 26 -8
3 -13 10 -10 15 3 5 0 11 -8 14 -7 3 -16 15 -19 26 -3 13 -1 19 5 14 6 -3 8
-1 5 4 -11 18 -56 21 -69 6z m46 -28 c4 -11 -5 -21 -29 -32 -39 -19 -42 -25
-19 -44 13 -10 20 -10 44 4 24 14 29 15 40 3 11 -14 4 -22 -48 -52 -1 0 0 -9
4 -18 8 -21 26 -20 57 4 21 17 27 18 36 6 10 -11 3 -20 -35 -46 -44 -30 -74
-34 -74 -10 0 6 -11 26 -25 44 -14 18 -25 38 -25 43 0 6 -7 16 -15 23 -24 20
-18 38 20 56 20 9 38 20 41 25 8 14 21 11 28 -6z m-130 -107 l-5 -53 55 -25
c31 -14 56 -28 56 -33 0 -18 -33 -17 -73 2 -60 29 -73 27 -48 -8 25 -34 27
-51 6 -51 -13 0 -65 69 -65 86 0 3 -9 17 -20 31 -11 14 -20 32 -20 39 0 23 28
16 46 -11 23 -35 34 -31 34 13 0 35 14 62 31 62 4 0 5 -24 3 -52z m41 -18 c-3
-5 -2 -10 3 -10 5 0 9 -7 9 -16 0 -15 -2 -14 -13 1 -12 16 -11 35 2 35 3 0 2
-4 -1 -10z m-146 -91 c28 -54 39 -85 33 -91 -6 -6 -15 -7 -21 -4 -14 9 -90
163 -83 170 16 17 33 -2 71 -75z m-134 -15 c36 -88 38 -89 76 -74 32 14 34 13
42 -16 1 -3 -14 -12 -33 -19 -19 -7 -42 -15 -51 -19 -12 -5 -23 12 -53 79 -35
81 -39 111 -13 102 7 -2 21 -26 32 -53z m370 -4 c-3 -5 -12 -10 -18 -10 -7 0
-6 4 3 10 19 12 23 12 15 0z"/>
<path d="M3810 830 c0 -5 5 -10 10 -10 6 0 10 5 10 10 0 6 -4 10 -10 10 -5 0
-10 -4 -10 -10z"/>
<path d="M1506 732 c-3 -5 1 -9 9 -9 8 0 15 4 15 9 0 4 -4 8 -9 8 -6 0 -12 -4
-15 -8z"/>
<path d="M3172 610 c-19 -10 -37 -22 -40 -26 -4 -4 -1 -4 5 0 9 5 11 2 7 -8
-3 -9 -11 -13 -17 -9 -6 4 -8 0 -4 -10 3 -10 2 -17 -4 -17 -6 0 -6 -6 0 -19 6
-10 7 -21 3 -25 -3 -4 2 -4 12 0 14 5 17 4 12 -4 -4 -7 -1 -12 8 -12 9 0 16
-5 16 -11 0 -5 6 -7 13 -3 8 5 9 4 2 -3 -16 -17 -63 -24 -71 -12 -3 6 0 15 7
20 11 7 10 9 -3 9 -10 0 -15 5 -12 13 2 7 -2 30 -11 50 -14 33 -19 37 -53 37
-21 0 -44 -6 -51 -12 -11 -10 -13 -10 -7 0 9 14 -10 17 -19 2 -4 -6 -10 -8
-15 -5 -4 3 -26 -1 -48 -9 -30 -11 -43 -11 -51 -3 -9 9 -16 8 -31 -1 -11 -6
-30 -12 -43 -12 -13 0 -27 -3 -31 -7 -4 -4 -38 -6 -77 -4 -59 2 -69 0 -69 -14
0 -9 -4 -14 -9 -10 -5 3 -13 -4 -16 -16 -6 -17 -9 -19 -17 -8 -8 12 -9 11 -5
-1 2 -8 10 -14 18 -13 11 2 13 -9 11 -52 -2 -32 1 -62 7 -69 9 -11 9 -15 -1
-19 -9 -3 -3 -13 17 -31 28 -25 63 -36 51 -17 -3 5 1 14 10 22 8 7 14 24 12
38 -2 18 2 26 12 26 8 0 20 4 26 7 12 8 24 0 24 -14 0 -5 -4 -6 -10 -3 -18 11
-10 -5 17 -35 24 -28 32 -30 80 -28 29 2 53 7 53 11 0 5 5 5 11 1 6 -3 15 -1
19 6 6 9 12 9 30 0 12 -7 20 -8 17 -3 -3 5 13 8 35 8 27 0 43 6 49 18 8 14 14
15 30 6 22 -12 79 -3 79 12 0 6 5 7 11 3 6 -3 14 -2 18 5 4 6 32 15 62 21 34
6 61 18 72 31 9 12 17 17 17 13 0 -5 4 -3 9 5 11 17 -13 80 -39 102 -11 9 -17
25 -14 35 11 48 -59 74 -114 44z m84 -24 c17 -13 18 -15 2 -21 -9 -4 -21 -4
-27 -1 -13 9 -41 -4 -41 -19 0 -7 18 -15 41 -18 70 -9 100 -57 62 -99 -21 -23
-103 -26 -103 -3 0 11 9 15 29 13 16 -1 36 4 45 11 23 20 2 41 -40 41 -33 0
-74 28 -74 50 0 18 48 60 68 60 10 0 27 -6 38 -14z m-180 -102 l18 -75 40 3
c31 2 41 -1 44 -13 2 -12 -11 -18 -53 -26 -30 -5 -57 -7 -60 -5 -3 3 -5 19 -5
36 0 17 -9 56 -19 86 -17 50 -17 56 -2 62 9 4 17 7 18 7 1 1 9 -33 19 -75z
m-76 41 c0 -8 -14 -17 -35 -21 -28 -5 -35 -11 -35 -29 0 -21 3 -23 40 -18 33
5 40 3 40 -11 0 -12 -9 -16 -35 -16 -27 0 -35 -4 -35 -17 0 -35 14 -43 50 -33
19 6 36 10 37 10 2 0 3 -8 3 -19 0 -14 -10 -20 -37 -25 -72 -11 -70 -13 -87
82 -20 109 -21 100 12 105 60 9 82 7 82 -8z m-140 -19 c0 -9 -12 -16 -32 -18
-27 -2 -34 -8 -36 -30 -3 -26 -2 -27 30 -17 45 12 48 12 48 -11 0 -16 -7 -20
-35 -20 -31 0 -35 -3 -35 -25 0 -23 4 -25 46 -25 37 0 45 -3 42 -16 -2 -13
-17 -18 -60 -21 l-56 -4 -7 68 c-3 37 -8 80 -11 95 -5 24 -2 27 28 31 67 8 78
7 78 -7z m-137 -10 c8 -20 -2 -26 -45 -26 -35 0 -39 -2 -36 -22 3 -20 9 -23
41 -22 30 1 37 -2 37 -17 0 -15 -8 -19 -35 -19 -35 0 -35 0 -35 -45 0 -31 -4
-45 -14 -45 -13 0 -26 78 -26 161 l0 38 48 4 c26 2 50 4 53 5 4 1 9 -4 12 -12z"/>
<path d="M2027 550 c-14 -11 -30 -20 -35 -20 -7 0 -8 -11 -2 -29 6 -20 5 -32
-3 -35 -9 -4 -9 -7 -1 -11 8 -4 9 -19 2 -50 -10 -45 1 -85 23 -85 6 0 8 -4 5
-9 -8 -12 95 -3 111 10 9 8 13 8 13 1 0 -6 8 -16 18 -21 20 -11 74 -3 66 10
-3 5 0 9 6 9 6 0 8 4 5 10 -3 5 1 22 9 37 14 26 15 26 16 6 0 -12 -5 -25 -11
-29 -8 -4 -7 -9 2 -15 10 -6 11 -9 2 -9 -9 0 -7 -6 4 -20 13 -14 19 -16 25 -7
5 8 8 9 8 0 0 -6 6 -10 14 -9 27 4 46 29 46 62 0 18 5 36 11 39 7 5 9 -7 6
-34 -3 -32 1 -44 17 -59 43 -39 170 -6 146 38 -5 10 -7 20 -2 23 4 2 1 2 -5 1
-18 -4 -16 11 2 30 18 18 20 50 3 41 -7 -4 -5 0 4 8 19 15 15 51 -10 80 -13
14 -30 18 -91 17 -66 -1 -191 5 -217 11 -5 1 -16 -1 -26 -5 -9 -4 -29 -1 -46
8 -51 26 -87 28 -115 6z m103 -33 c22 -13 27 -56 8 -75 -9 -9 -9 -15 0 -24 19
-19 14 -42 -13 -68 -23 -21 -29 -22 -72 -14 -33 6 -47 14 -45 23 2 8 8 52 14
99 l11 84 39 -6 c21 -4 48 -12 58 -19z m86 -76 c-9 -95 -16 -121 -32 -121 -17
0 -17 7 -3 107 12 86 16 96 30 87 7 -4 8 -32 5 -73z m127 63 c41 -7 52 -34 13
-34 -22 0 -24 -4 -30 -80 -7 -71 -10 -80 -27 -80 -19 0 -20 5 -13 85 l7 85
-27 0 c-16 0 -26 5 -26 15 0 16 37 19 103 9z m167 -24 c0 -18 -4 -20 -40 -14
-38 6 -40 5 -40 -20 0 -23 4 -26 35 -26 24 0 35 -5 35 -15 0 -10 -11 -15 -35
-15 -31 0 -35 -3 -35 -25 0 -22 4 -25 40 -25 33 0 40 -3 40 -19 0 -18 -5 -19
-57 -14 -32 3 -58 6 -59 7 -1 0 1 43 4 94 l4 92 54 0 c47 0 54 -2 54 -20z
m-143 -62 c-3 -8 -6 -5 -6 6 -1 11 2 17 5 13 3 -3 4 -12 1 -19z"/>
<path d="M2067 493 c-4 -3 -7 -15 -7 -25 0 -12 7 -18 24 -18 29 0 39 12 30 34
-6 16 -35 22 -47 9z"/>
<path d="M2050 396 c0 -22 4 -26 31 -26 26 0 30 3 27 23 -2 16 -11 23 -30 25
-24 3 -28 0 -28 -22z"/>
<path d="M2916 293 c-6 -14 -5 -15 5 -6 7 7 10 15 7 18 -3 3 -9 -2 -12 -12z"/>
<path d="M4086 1044 c-36 -35 1 -104 55 -104 53 0 66 52 24 95 -30 29 -57 32
-79 9z m51 -36 c1 -10 -3 -18 -9 -18 -6 0 -8 -3 -5 -6 4 -4 13 -2 20 4 10 9
14 9 14 -1 0 -17 -33 -19 -45 -4 -15 19 -10 43 8 43 9 0 17 -8 17 -18z"/>
<path d="M659 4083 c-13 -16 -12 -17 4 -4 16 13 21 21 13 21 -2 0 -10 -8 -17
-17z"/>
<path d="M670 696 c0 -2 8 -10 18 -17 15 -13 16 -12 3 4 -13 16 -21 21 -21 13z"/>
<path d="M3490 156 c0 -2 7 -7 16 -10 8 -3 12 -2 9 4 -6 10 -25 14 -25 6z"/>
</g>
</svg>
